Kablammov0.12-B.ufo
<glyph name="exclam" format="2">
  <advance width="345"/>
  <unicode hex="0021"/>
  <outline>
    <contour>
      <point x="132" y="294" type="curve" smooth="yes"/>
      <point x="135" y="254"/>
      <point x="191" y="255"/>
      <point x="194" y="288" type="curve" smooth="yes"/>
      <point x="208" y="426"/>
      <point x="223" y="608"/>
      <point x="230" y="710" type="curve" smooth="yes"/>
      <point x="236" y="802"/>
      <point x="106" y="801"/>
      <point x="109" y="714" type="curve" smooth="yes"/>
      <point x="109" y="702"/>
      <point x="110" y="689"/>
      <point x="110" y="676" type="curve" smooth="yes"/>
      <point x="110" y="664"/>
      <point x="111" y="652"/>
      <point x="112" y="639" type="curve" smooth="yes"/>
      <point x="112" y="626"/>
      <point x="113" y="612"/>
      <point x="114" y="598" type="curve" smooth="yes"/>
      <point x="115" y="585"/>
      <point x="115" y="571"/>
      <point x="116" y="557" type="curve" smooth="yes"/>
      <point x="117" y="545"/>
      <point x="117" y="534"/>
      <point x="118" y="522" type="curve" smooth="yes"/>
      <point x="119" y="511"/>
      <point x="120" y="499"/>
      <point x="120" y="488" type="curve" smooth="yes"/>
      <point x="124" y="423"/>
      <point x="128" y="356"/>
    </contour>
    <contour>
      <point x="156" y="60" type="curve" smooth="yes"/>
      <point x="214" y="60"/>
      <point x="250" y="84"/>
      <point x="250" y="137" type="curve" smooth="yes"/>
      <point x="250" y="180"/>
      <point x="221" y="207"/>
      <point x="168" y="207" type="curve" smooth="yes"/>
      <point x="113" y="207"/>
      <point x="79" y="182"/>
      <point x="79" y="137" type="curve" smooth="yes"/>
      <point x="79" y="92"/>
      <point x="104" y="60"/>
    </contour>
    <contour>
      <point x="127" y="468" type="curve" smooth="yes"/>
      <point x="43" y="458"/>
      <point x="26" y="451"/>
      <point x="30" y="416" type="curve" smooth="yes"/>
      <point x="34" y="386"/>
      <point x="62" y="385"/>
      <point x="134" y="395" type="curve" smooth="yes"/>
      <point x="139" y="396"/>
      <point x="143" y="397"/>
      <point x="147" y="399" type="curve" smooth="yes"/>
      <point x="152" y="402"/>
      <point x="156" y="409"/>
      <point x="154" y="437" type="curve" smooth="yes"/>
      <point x="151" y="458"/>
      <point x="148" y="469"/>
      <point x="139" y="469" type="curve" smooth="yes"/>
      <point x="136" y="469"/>
      <point x="134" y="469"/>
    </contour>
    <contour>
      <point x="204" y="632" type="curve" smooth="yes"/>
      <point x="191" y="632"/>
      <point x="178" y="626"/>
      <point x="176" y="597" type="curve" smooth="yes"/>
      <point x="174" y="564"/>
      <point x="182" y="555"/>
      <point x="188" y="554" type="curve" smooth="yes"/>
      <point x="195" y="553"/>
      <point x="201" y="552"/>
      <point x="212" y="551" type="curve" smooth="yes"/>
      <point x="287" y="546"/>
      <point x="307" y="551"/>
      <point x="309" y="581" type="curve" smooth="yes"/>
      <point x="311" y="617"/>
      <point x="292" y="623"/>
      <point x="224" y="631" type="curve" smooth="yes"/>
      <point x="217" y="632"/>
      <point x="210" y="632"/>
    </contour>
  </outline>
</glyph>
<glyph name="quotedbl" format="2">
  <advance width="391"/>
  <unicode hex="0022"/>
  <outline>
    <contour>
      <point x="56" y="424" type="curve" smooth="yes"/>
      <point x="61" y="389"/>
      <point x="77" y="377"/>
      <point x="97" y="377" type="curve" smooth="yes"/>
      <point x="124" y="377"/>
      <point x="140" y="391"/>
      <point x="144" y="420" type="curve" smooth="yes"/>
      <point x="155" y="493"/>
      <point x="165" y="566"/>
      <point x="174" y="637" type="curve" smooth="yes"/>
      <point x="183" y="708"/>
      <point x="150" y="737"/>
      <point x="103" y="737" type="curve" smooth="yes"/>
      <point x="65" y="737"/>
      <point x="29" y="708"/>
      <point x="34" y="644" type="curve" smooth="yes"/>
      <point x="35" y="636"/>
      <point x="35" y="628"/>
      <point x="36" y="620" type="curve"/>
      <point x="102" y="629"/>
      <point x="120" y="628"/>
      <point x="123" y="596" type="curve" smooth="yes"/>
      <point x="126" y="560"/>
      <point x="105" y="557"/>
      <point x="42" y="558" type="curve"/>
      <point x="46" y="514"/>
      <point x="51" y="466"/>
    </contour>
    <contour>
      <point x="230" y="423" type="curve" smooth="yes"/>
      <point x="232" y="383"/>
      <point x="256" y="373"/>
      <point x="279" y="373" type="curve" smooth="yes"/>
      <point x="301" y="373"/>
      <point x="324" y="384"/>
      <point x="331" y="423" type="curve" smooth="yes"/>
      <point x="343" y="490"/>
      <point x="353" y="559"/>
      <point x="358" y="624" type="curve" smooth="yes"/>
      <point x="364" y="698"/>
      <point x="329" y="721"/>
      <point x="293" y="721" type="curve" smooth="yes"/>
      <point x="256" y="721"/>
      <point x="226" y="701"/>
      <point x="228" y="648" type="curve" smooth="yes"/>
      <point x="228" y="632"/>
      <point x="228" y="620"/>
      <point x="228" y="604" type="curve"/>
      <point x="291" y="613"/>
      <point x="309" y="609"/>
      <point x="310" y="579" type="curve" smooth="yes"/>
      <point x="311" y="551"/>
      <point x="295" y="543"/>
      <point x="226" y="540" type="curve"/>
      <point x="226" y="531"/>
      <point x="226" y="523"/>
      <point x="226" y="514" type="curve"/>
      <point x="226" y="514"/>
      <point x="227" y="501"/>
      <point x="228" y="478" type="curve" smooth="yes"/>
      <point x="229" y="458"/>
      <point x="229" y="451"/>
      <point x="229" y="451" type="curve"/>
      <point x="229" y="442"/>
      <point x="230" y="433"/>
    </contour>
  </outline>
</glyph>
<glyph name="percent" format="2">
  <advance width="664"/>
  <unicode hex="0025"/>
  <outline>
    <contour>
      <point x="194" y="372" type="curve" smooth="yes"/>
      <point x="275" y="372"/>
      <point x="339" y="424"/>
      <point x="338" y="538" type="curve" smooth="yes"/>
      <point x="337" y="633"/>
      <point x="285" y="688"/>
      <point x="202" y="688" type="curve" smooth="yes"/>
      <point x="116" y="688"/>
      <point x="56" y="625"/>
      <point x="56" y="528" type="curve" smooth="yes"/>
      <point x="56" y="431"/>
      <point x="103" y="372"/>
    </contour>
    <contour>
      <point x="186" y="458" type="curve" smooth="yes"/>
      <point x="148" y="458"/>
      <point x="128" y="488"/>
      <point x="128" y="536" type="curve" smooth="yes"/>
      <point x="128" y="584"/>
      <point x="154" y="619"/>
      <point x="195" y="619" type="curve" smooth="yes"/>
      <point x="230" y="619"/>
      <point x="257" y="590"/>
      <point x="257" y="542" type="curve" smooth="yes"/>
      <point x="257" y="488"/>
      <point x="229" y="458"/>
    </contour>
    <contour>
      <point x="465" y="-16" type="curve" smooth="yes"/>
      <point x="555" y="-16"/>
      <point x="604" y="31"/>
      <point x="604" y="137" type="curve" smooth="yes"/>
      <point x="604" y="238"/>
      <point x="559" y="286"/>
      <point x="482" y="286" type="curve" smooth="yes"/>
      <point x="403" y="286"/>
      <point x="348" y="232"/>
      <point x="348" y="135" type="curve" smooth="yes"/>
      <point x="348" y="33"/>
      <point x="395" y="-16"/>
    </contour>
    <contour>
      <point x="471" y="65" type="curve" smooth="yes"/>
      <point x="435" y="65"/>
      <point x="419" y="87"/>
      <point x="419" y="147" type="curve" smooth="yes"/>
      <point x="419" y="187"/>
      <point x="439" y="215"/>
      <point x="478" y="215" type="curve" smooth="yes"/>
      <point x="510" y="215"/>
      <point x="525" y="190"/>
      <point x="525" y="141" type="curve" smooth="yes"/>
      <point x="525" y="88"/>
      <point x="507" y="65"/>
    </contour>
    <contour>
      <point x="508" y="6" type="line"/>
      <point x="576" y="-102"/>
      <point x="599" y="-115"/>
      <point x="627" y="-97" type="curve" smooth="yes"/>
      <point x="654" y="-80"/>
      <point x="648" y="-49"/>
      <point x="575" y="54" type="curve"/>
    </contour>
    <contour>
      <point x="370" y="79" type="line"/>
      <point x="294" y="26"/>
      <point x="282" y="-7"/>
      <point x="298" y="-27" type="curve" smooth="yes"/>
      <point x="317" y="-51"/>
      <point x="341" y="-53"/>
      <point x="417" y="11" type="curve"/>
    </contour>
    <contour>
      <point x="128" y="645" type="line"/>
      <point x="56" y="722"/>
      <point x="25" y="732"/>
      <point x="2" y="708" type="curve" smooth="yes"/>
      <point x="-21" y="683"/>
      <point x="-12" y="658"/>
      <point x="73" y="583" type="curve"/>
    </contour>
    <contour>
      <point x="298" y="613" type="line"/>
      <point x="381" y="716"/>
      <point x="385" y="741"/>
      <point x="356" y="760" type="curve" smooth="yes"/>
      <point x="331" y="778"/>
      <point x="310" y="766"/>
      <point x="233" y="657" type="curve"/>
    </contour>
    <contour>
      <point x="102" y="494" type="line"/>
      <point x="82" y="479"/>
      <point x="74" y="465"/>
      <point x="95" y="439" type="curve" smooth="yes"/>
      <point x="113" y="417"/>
      <point x="130" y="413"/>
      <point x="153" y="433" type="curve"/>
    </contour>
    <contour>
      <point x="569" y="575" type="curve" smooth="yes"/>
      <point x="384" y="420"/>
      <point x="230" y="290"/>
      <point x="44" y="131" type="curve" smooth="yes"/>
      <point x="16" y="108"/>
      <point x="17" y="77"/>
      <point x="33" y="62" type="curve" smooth="yes"/>
      <point x="50" y="46"/>
      <point x="74" y="48"/>
      <point x="100" y="70" type="curve" smooth="yes"/>
      <point x="272" y="218"/>
      <point x="441" y="364"/>
      <point x="619" y="519" type="curve" smooth="yes"/>
      <point x="648" y="545"/>
      <point x="652" y="572"/>
      <point x="636" y="588" type="curve" smooth="yes"/>
      <point x="623" y="601"/>
      <point x="598" y="599"/>
    </contour>
    <contour>
      <point x="553" y="191" type="line"/>
      <point x="564" y="204"/>
      <point x="571" y="217"/>
      <point x="553" y="239" type="curve" smooth="yes"/>
      <point x="534" y="261"/>
      <point x="523" y="258"/>
      <point x="505" y="247" type="curve"/>
    </contour>
  </outline>
</glyph>
<glyph name="ampersand" format="2">
  <advance width="557"/>
  <unicode hex="0026"/>
  <outline>
    <contour>
      <point x="221" y="-32" type="curve" smooth="yes"/>
      <point x="385" y="-32"/>
      <point x="442" y="49"/>
      <point x="447" y="136" type="curve" smooth="yes"/>
      <point x="450" y="186"/>
      <point x="450" y="244"/>
      <point x="447" y="289" type="curve" smooth="yes"/>
      <point x="445" y="318"/>
      <point x="455" y="327"/>
      <point x="482" y="331" type="curve" smooth="yes"/>
      <point x="526" y="337"/>
      <point x="549" y="371"/>
      <point x="549" y="405" type="curve" smooth="yes"/>
      <point x="549" y="440"/>
      <point x="524" y="475"/>
      <point x="475" y="475" type="curve" smooth="yes"/>
      <point x="454" y="475"/>
      <point x="417" y="469"/>
      <point x="376" y="462" type="curve"/>
      <point x="390" y="392"/>
      <point x="390" y="373"/>
      <point x="367" y="369" type="curve" smooth="yes"/>
      <point x="343" y="365"/>
      <point x="334" y="378"/>
      <point x="325" y="453" type="curve"/>
      <point x="310" y="450"/>
      <point x="296" y="447"/>
      <point x="282" y="444" type="curve"/>
      <point x="289" y="365"/>
      <point x="288" y="347"/>
      <point x="265" y="345" type="curve" smooth="yes"/>
      <point x="242" y="343"/>
      <point x="239" y="361"/>
      <point x="233" y="435" type="curve"/>
      <point x="221" y="433"/>
      <point x="212" y="432"/>
      <point x="208" y="432" type="curve" smooth="yes"/>
      <point x="178" y="432"/>
      <point x="157" y="459"/>
      <point x="157" y="512" type="curve" smooth="yes"/>
      <point x="157" y="580"/>
      <point x="191" y="633"/>
      <point x="294" y="633" type="curve" smooth="yes"/>
      <point x="353" y="633"/>
      <point x="398" y="605"/>
      <point x="433" y="605" type="curve" smooth="yes"/>
      <point x="458" y="605"/>
      <point x="470" y="617"/>
      <point x="470" y="643" type="curve" smooth="yes"/>
      <point x="470" y="672"/>
      <point x="420" y="714"/>
      <point x="303" y="714" type="curve" smooth="yes"/>
      <point x="165" y="714"/>
      <point x="68" y="640"/>
      <point x="68" y="503" type="curve" smooth="yes"/>
      <point x="68" y="427"/>
      <point x="100" y="392"/>
      <point x="148" y="364" type="curve" smooth="yes"/>
      <point x="166" y="354"/>
      <point x="166" y="333"/>
      <point x="148" y="328" type="curve" smooth="yes"/>
      <point x="84" y="312"/>
      <point x="20" y="262"/>
      <point x="20" y="155" type="curve" smooth="yes"/>
      <point x="20" y="47"/>
      <point x="95" y="-32"/>
    </contour>
    <contour>
      <point x="262" y="107" type="curve" smooth="yes"/>
      <point x="194" y="107"/>
      <point x="149" y="161"/>
      <point x="149" y="224" type="curve" smooth="yes"/>
      <point x="149" y="270"/>
      <point x="168" y="291"/>
      <point x="211" y="298" type="curve" smooth="yes"/>
      <point x="246" y="303"/>
      <point x="285" y="306"/>
      <point x="315" y="306" type="curve" smooth="yes"/>
      <point x="343" y="306"/>
      <point x="360" y="289"/>
      <point x="365" y="262" type="curve" smooth="yes"/>
      <point x="370" y="237"/>
      <point x="374" y="200"/>
      <point x="374" y="172" type="curve" smooth="yes"/>
      <point x="374" y="131"/>
      <point x="328" y="107"/>
    </contour>
    <contour>
      <point x="103" y="95" type="curve" smooth="yes"/>
      <point x="85" y="95"/>
      <point x="71" y="109"/>
      <point x="71" y="127" type="curve" smooth="yes"/>
      <point x="71" y="144"/>
      <point x="85" y="158"/>
      <point x="103" y="158" type="curve" smooth="yes"/>
      <point x="120" y="158"/>
      <point x="134" y="144"/>
      <point x="134" y="127" type="curve" smooth="yes"/>
      <point x="134" y="109"/>
      <point x="120" y="95"/>
    </contour>
    <contour>
      <point x="169" y="22" type="curve" smooth="yes"/>
      <point x="148" y="22"/>
      <point x="131" y="39"/>
      <point x="131" y="60" type="curve" smooth="yes"/>
      <point x="131" y="80"/>
      <point x="148" y="96"/>
      <point x="169" y="96" type="curve" smooth="yes"/>
      <point x="189" y="96"/>
      <point x="205" y="80"/>
      <point x="205" y="60" type="curve" smooth="yes"/>
      <point x="205" y="39"/>
      <point x="189" y="22"/>
    </contour>
    <contour>
      <point x="262" y="8" type="curve" smooth="yes"/>
      <point x="244" y="8"/>
      <point x="230" y="22"/>
      <point x="230" y="40" type="curve" smooth="yes"/>
      <point x="230" y="57"/>
      <point x="244" y="71"/>
      <point x="262" y="71" type="curve" smooth="yes"/>
      <point x="279" y="71"/>
      <point x="293" y="57"/>
      <point x="293" y="40" type="curve" smooth="yes"/>
      <point x="293" y="22"/>
      <point x="279" y="8"/>
    </contour>
    <contour>
      <point x="396" y="671" type="curve" smooth="yes"/>
      <point x="399" y="676"/>
      <point x="398" y="685"/>
      <point x="376" y="693" type="curve" smooth="yes"/>
      <point x="357" y="700"/>
      <point x="349" y="696"/>
      <point x="346" y="689" type="curve" smooth="yes"/>
      <point x="342" y="680"/>
      <point x="339" y="673"/>
      <point x="337" y="666" type="curve" smooth="yes"/>
      <point x="335" y="659"/>
      <point x="335" y="650"/>
      <point x="356" y="642" type="curve" smooth="yes"/>
      <point x="376" y="636"/>
      <point x="384" y="644"/>
      <point x="388" y="651" type="curve" smooth="yes"/>
      <point x="391" y="658"/>
      <point x="395" y="665"/>
    </contour>
    <contour>
      <point x="454" y="647" type="curve" smooth="yes"/>
      <point x="456" y="653"/>
      <point x="455" y="662"/>
      <point x="432" y="670" type="curve" smooth="yes"/>
      <point x="414" y="676"/>
      <point x="405" y="669"/>
      <point x="403" y="665" type="curve" smooth="yes"/>
      <point x="399" y="656"/>
      <point x="396" y="650"/>
      <point x="394" y="642" type="curve" smooth="yes"/>
      <point x="392" y="635"/>
      <point x="392" y="626"/>
      <point x="413" y="619" type="curve" smooth="yes"/>
      <point x="433" y="612"/>
      <point x="441" y="620"/>
      <point x="445" y="627" type="curve" smooth="yes"/>
      <point x="449" y="634"/>
      <point x="452" y="641"/>
    </contour>
  </outline>
</glyph>
<glyph name="parenright" format="2">
  <advance width="367"/>
  <unicode hex="0029"/>
  <outline>
    <contour>
      <point x="311" y="353" type="curve" smooth="yes"/>
      <point x="311" y="575"/>
      <point x="248" y="733"/>
      <point x="88" y="846" type="curve" smooth="yes"/>
      <point x="26" y="889"/>
      <point x="-32" y="817"/>
      <point x="31" y="768" type="curve" smooth="yes"/>
      <point x="159" y="667"/>
      <point x="223" y="551"/>
      <point x="223" y="338" type="curve" smooth="yes"/>
      <point x="223" y="206"/>
      <point x="152" y="42"/>
      <point x="45" y="-66" type="curve" smooth="yes"/>
      <point x="-10" y="-122"/>
      <point x="68" y="-195"/>
      <point x="123" y="-134" type="curve" smooth="yes"/>
      <point x="232" y="-14"/>
      <point x="311" y="169"/>
    </contour>
    <contour>
      <point x="154" y="642" type="curve" smooth="yes"/>
      <point x="79" y="611"/>
      <point x="48" y="593"/>
      <point x="61" y="557" type="curve" smooth="yes"/>
      <point x="74" y="521"/>
      <point x="110" y="528"/>
      <point x="185" y="554" type="curve" smooth="yes"/>
      <point x="216" y="565"/>
      <point x="245" y="577"/>
      <point x="275" y="590" type="curve" smooth="yes"/>
      <point x="349" y="622"/>
      <point x="367" y="640"/>
      <point x="354" y="671" type="curve" smooth="yes"/>
      <point x="343" y="698"/>
      <point x="316" y="698"/>
      <point x="243" y="675" type="curve" smooth="yes"/>
      <point x="215" y="666"/>
      <point x="183" y="654"/>
    </contour>
    <contour>
      <point x="164" y="236" type="curve" smooth="yes"/>
      <point x="90" y="265"/>
      <point x="65" y="255"/>
      <point x="55" y="223" type="curve" smooth="yes"/>
      <point x="47" y="194"/>
      <point x="54" y="179"/>
      <point x="134" y="143" type="curve" smooth="yes"/>
      <point x="199" y="116"/>
      <point x="245" y="99"/>
      <point x="283" y="87" type="curve" smooth="yes"/>
      <point x="349" y="68"/>
      <point x="362" y="72"/>
      <point x="374" y="106" type="curve" smooth="yes"/>
      <point x="385" y="132"/>
      <point x="379" y="151"/>
      <point x="324" y="176" type="curve" smooth="yes"/>
      <point x="288" y="191"/>
      <point x="232" y="211"/>
    </contour>
    <contour>
      <point x="236" y="450" type="curve" smooth="yes"/>
      <point x="223" y="447"/>
      <point x="215" y="440"/>
      <point x="219" y="409" type="curve" smooth="yes"/>
      <point x="222" y="377"/>
      <point x="230" y="373"/>
      <point x="243" y="373" type="curve" smooth="yes"/>
      <point x="254" y="373"/>
      <point x="263" y="374"/>
      <point x="272" y="376" type="curve" smooth="yes"/>
      <point x="287" y="380"/>
      <point x="291" y="387"/>
      <point x="289" y="416" type="curve" smooth="yes"/>
      <point x="285" y="445"/>
      <point x="275" y="455"/>
      <point x="260" y="454" type="curve" smooth="yes"/>
      <point x="252" y="453"/>
      <point x="243" y="452"/>
    </contour>
  </outline>
</glyph>
<glyph name="plus" format="2">
  <advance width="413"/>
  <unicode hex="002B"/>
  <outline>
    <contour>
      <point x="250" y="143" type="curve" smooth="yes"/>
      <point x="250" y="249"/>
      <point x="250" y="356"/>
      <point x="247" y="447" type="curve" smooth="yes"/>
      <point x="246" y="485"/>
      <point x="232" y="506"/>
      <point x="201" y="506" type="curve" smooth="yes"/>
      <point x="176" y="506"/>
      <point x="159" y="489"/>
      <point x="159" y="442" type="curve" smooth="yes"/>
      <point x="159" y="356"/>
      <point x="161" y="249"/>
      <point x="164" y="143" type="curve" smooth="yes"/>
      <point x="165" y="105"/>
      <point x="182" y="87"/>
      <point x="206" y="87" type="curve" smooth="yes"/>
      <point x="232" y="87"/>
      <point x="250" y="101"/>
    </contour>
    <contour>
      <point x="83" y="233" type="curve" smooth="yes"/>
      <point x="163" y="227"/>
      <point x="250" y="223"/>
      <point x="329" y="220" type="curve" smooth="yes"/>
      <point x="373" y="219"/>
      <point x="386" y="245"/>
      <point x="385" y="267" type="curve" smooth="yes"/>
      <point x="385" y="293"/>
      <point x="371" y="308"/>
      <point x="329" y="309" type="curve" smooth="yes"/>
      <point x="253" y="311"/>
      <point x="162" y="313"/>
      <point x="86" y="313" type="curve" smooth="yes"/>
      <point x="42" y="313"/>
      <point x="31" y="294"/>
      <point x="31" y="274" type="curve" smooth="yes"/>
      <point x="31" y="249"/>
      <point x="42" y="235"/>
    </contour>
  </outline>
</glyph>
<glyph name="hyphen" format="2">
  <advance width="333"/>
  <unicode hex="002D"/>
  <outline>
    <contour>
      <point x="84" y="376" type="curve" smooth="yes"/>
      <point x="59" y="375"/>
      <point x="36" y="358"/>
      <point x="36" y="325" type="curve" smooth="yes"/>
      <point x="36" y="300"/>
      <point x="47" y="279"/>
      <point x="79" y="274" type="curve" smooth="yes"/>
      <point x="123" y="268"/>
      <point x="179" y="265"/>
      <point x="225" y="266" type="curve" smooth="yes"/>
      <point x="263" y="267"/>
      <point x="295" y="279"/>
      <point x="295" y="320" type="curve" smooth="yes"/>
      <point x="295" y="348"/>
      <point x="281" y="369"/>
      <point x="238" y="373" type="curve" smooth="yes"/>
      <point x="189" y="377"/>
      <point x="133" y="378"/>
    </contour>
  </outline>
</glyph>
<glyph name="period" format="2">
  <advance width="276"/>
  <unicode hex="002E"/>
  <outline>
    <contour>
      <point x="134" y="-29" type="curve" smooth="yes"/>
      <point x="201" y="-29"/>
      <point x="240" y="5"/>
      <point x="240" y="67" type="curve" smooth="yes"/>
      <point x="240" y="121"/>
      <point x="202" y="165"/>
      <point x="137" y="165" type="curve" smooth="yes"/>
      <point x="79" y="165"/>
      <point x="35" y="128"/>
      <point x="35" y="70" type="curve" smooth="yes"/>
      <point x="35" y="11"/>
      <point x="75" y="-29"/>
    </contour>
    <contour>
      <point x="124" y="34" type="curve" smooth="yes"/>
      <point x="101" y="34"/>
      <point x="83" y="52"/>
      <point x="83" y="75" type="curve" smooth="yes"/>
      <point x="83" y="97"/>
      <point x="101" y="116"/>
      <point x="124" y="116" type="curve" smooth="yes"/>
      <point x="146" y="116"/>
      <point x="165" y="97"/>
      <point x="165" y="75" type="curve" smooth="yes"/>
      <point x="165" y="52"/>
      <point x="146" y="34"/>
    </contour>
  </outline>
</glyph>
<glyph name="slash" format="2">
  <advance width="402"/>
  <unicode hex="002F"/>
  <outline>
    <contour>
      <point x="42" y="-147" type="curve" smooth="yes"/>
      <point x="72" y="-157"/>
      <point x="103" y="-145"/>
      <point x="117" y="-100" type="curve" smooth="yes"/>
      <point x="209" y="189"/>
      <point x="302" y="488"/>
      <point x="386" y="771" type="curve" smooth="yes"/>
      <point x="401" y="820"/>
      <point x="394" y="839"/>
      <point x="360" y="850" type="curve" smooth="yes"/>
      <point x="332" y="860"/>
      <point x="305" y="845"/>
      <point x="291" y="802" type="curve" smooth="yes"/>
      <point x="201" y="521"/>
      <point x="108" y="223"/>
      <point x="21" y="-68" type="curve" smooth="yes"/>
      <point x="7" y="-113"/>
      <point x="14" y="-137"/>
    </contour>
  </outline>
</glyph>
<glyph name="zero" format="2">
  <advance width="636"/>
  <unicode hex="0030"/>
  <guideline x="345" y="313" angle="32.5681"/>
  <guideline x="310" y="376" angle="211.3191"/>
  <outline>
    <contour>
      <point x="296" y="-14" type="curve" smooth="yes"/>
      <point x="481" y="-14"/>
      <point x="596" y="127"/>
      <point x="596" y="389" type="curve" smooth="yes"/>
      <point x="596" y="616"/>
      <point x="481" y="714"/>
      <point x="335" y="714" type="curve" smooth="yes"/>
      <point x="159" y="714"/>
      <point x="40" y="575"/>
      <point x="40" y="305" type="curve" smooth="yes"/>
      <point x="40" y="110"/>
      <point x="119" y="-14"/>
    </contour>
    <contour>
      <point x="342" y="641" type="curve" smooth="yes"/>
      <point x="430" y="641"/>
      <point x="517" y="567"/>
      <point x="517" y="388" type="curve" smooth="yes"/>
      <point x="517" y="224"/>
      <point x="424" y="163"/>
      <point x="330" y="163" type="curve" smooth="yes"/>
      <point x="258" y="163"/>
      <point x="180" y="203"/>
      <point x="180" y="358" type="curve" smooth="yes"/>
      <point x="180" y="523"/>
      <point x="243" y="641"/>
    </contour>
    <contour>
      <point x="391" y="233" type="curve" smooth="yes"/>
      <point x="406" y="233"/>
      <point x="417" y="243"/>
      <point x="417" y="257" type="curve" smooth="yes"/>
      <point x="417" y="272"/>
      <point x="407" y="285"/>
      <point x="392" y="285" type="curve" smooth="yes"/>
      <point x="378" y="285"/>
      <point x="363" y="277"/>
      <point x="363" y="262" type="curve" smooth="yes"/>
      <point x="363" y="248"/>
      <point x="377" y="233"/>
    </contour>
    <contour>
      <point x="515" y="346" type="curve"/>
      <point x="515" y="342"/>
      <point x="513" y="329"/>
      <point x="510" y="312" type="curve" smooth="yes"/>
      <point x="505" y="292"/>
      <point x="502" y="283"/>
      <point x="499" y="274" type="curve"/>
      <point x="508" y="296"/>
      <point x="515" y="325"/>
    </contour>
    <contour>
      <point x="515" y="445" type="curve"/>
      <point x="517" y="436"/>
      <point x="518" y="427"/>
      <point x="519" y="408" type="curve" smooth="yes"/>
      <point x="520" y="390"/>
      <point x="519" y="381"/>
      <point x="518" y="372" type="curve"/>
      <point x="522" y="393"/>
      <point x="520" y="423"/>
    </contour>
    <contour>
      <point x="425" y="278" type="line" smooth="yes"/>
      <point x="389" y="328"/>
      <point x="326" y="282"/>
      <point x="358" y="240" type="curve" smooth="yes"/>
      <point x="544" y="1" type="line" smooth="yes"/>
      <point x="570" y="-33"/>
      <point x="622" y="5"/>
      <point x="593" y="46" type="curve" smooth="yes"/>
    </contour>
    <contour>
      <point x="397" y="495" type="line" smooth="yes"/>
      <point x="355" y="453"/>
      <point x="415" y="411"/>
      <point x="444" y="440" type="curve" smooth="yes"/>
      <point x="598" y="589" type="line" smooth="yes"/>
      <point x="635" y="624"/>
      <point x="580" y="678"/>
      <point x="547" y="645" type="curve" smooth="yes"/>
    </contour>
    <contour>
      <point x="95" y="484" type="line" smooth="yes"/>
      <point x="64" y="494"/>
      <point x="47" y="430"/>
      <point x="74" y="425" type="curve" smooth="yes"/>
      <point x="89" y="422" type="line" smooth="yes"/>
      <point x="124" y="415"/>
      <point x="133" y="472"/>
      <point x="108" y="480" type="curve" smooth="yes"/>
    </contour>
    <contour>
      <point x="298" y="166" type="curve"/>
      <point x="322" y="162"/>
      <point x="339" y="162"/>
      <point x="358" y="165" type="curve"/>
      <point x="365" y="89"/>
      <point x="352" y="47"/>
      <point x="325" y="46" type="curve" smooth="yes"/>
      <point x="297" y="45"/>
      <point x="292" y="91"/>
    </contour>
    <contour>
      <point x="218" y="215" type="curve"/>
      <point x="227" y="202"/>
      <point x="243" y="188"/>
      <point x="262" y="178" type="curve"/>
      <point x="206" y="112"/>
      <point x="176" y="100"/>
      <point x="161" y="116" type="curve" smooth="yes"/>
      <point x="143" y="135"/>
      <point x="159" y="162"/>
    </contour>
    <contour>
      <point x="181" y="411" type="curve"/>
      <point x="179" y="384"/>
      <point x="178" y="358"/>
      <point x="180" y="331" type="curve"/>
      <point x="179" y="340"/>
      <point x="178" y="342"/>
      <point x="180" y="369" type="curve" smooth="yes"/>
      <point x="180" y="380"/>
      <point x="181" y="406"/>
    </contour>
    <contour>
      <point x="199" y="506" type="curve"/>
      <point x="194" y="492"/>
      <point x="188" y="465"/>
      <point x="187" y="450" type="curve"/>
      <point x="188" y="457"/>
      <point x="190" y="467"/>
      <point x="192" y="478" type="curve" smooth="yes"/>
      <point x="195" y="495"/>
      <point x="196" y="498"/>
    </contour>
    <contour>
      <point x="432" y="617" type="curve"/>
      <point x="415" y="630"/>
      <point x="384" y="641"/>
      <point x="366" y="641" type="curve"/>
      <point x="378" y="640"/>
      <point x="381" y="639"/>
      <point x="401" y="631" type="curve" smooth="yes"/>
      <point x="414" y="626"/>
      <point x="424" y="622"/>
    </contour>
    <contour>
      <point x="331" y="642" type="curve"/>
      <point x="310" y="642"/>
      <point x="280" y="632"/>
      <point x="273" y="620" type="curve"/>
      <point x="280" y="625"/>
      <point x="287" y="629"/>
      <point x="299" y="634" type="curve" smooth="yes"/>
      <point x="313" y="640"/>
      <point x="318" y="641"/>
    </contour>
  </outline>
</glyph>
<glyph name="four" format="2">
  <advance width="587"/>
  <unicode hex="0034"/>
  <outline>
    <contour>
      <point x="326" y="378" type="curve" smooth="yes"/>
      <point x="330" y="157" type="line" smooth="yes"/>
      <point x="331" y="115"/>
      <point x="323" y="105"/>
      <point x="293" y="92" type="curve" smooth="yes"/>
      <point x="234" y="67" type="line" smooth="yes"/>
      <point x="186" y="47"/>
      <point x="189" y="-10"/>
      <point x="233" y="-10" type="curve" smooth="yes"/>
      <point x="491" y="-12" type="line" smooth="yes"/>
      <point x="555" y="-12"/>
      <point x="556" y="52"/>
      <point x="504" y="73" type="curve" smooth="yes"/>
      <point x="438" y="100" type="line" smooth="yes"/>
      <point x="421" y="107"/>
      <point x="413" y="119"/>
      <point x="414" y="155" type="curve" smooth="yes"/>
      <point x="418" y="383" type="line" smooth="yes"/>
      <point x="419" y="450"/>
      <point x="325" y="453"/>
    </contour>
    <contour>
      <point x="215" y="468" type="line" smooth="yes"/>
      <point x="260" y="455"/>
      <point x="256" y="513"/>
      <point x="239" y="517" type="curve" smooth="yes"/>
      <point x="220" y="522" type="line" smooth="yes"/>
      <point x="190" y="530"/>
      <point x="175" y="480"/>
      <point x="205" y="471" type="curve" smooth="yes"/>
    </contour>
    <contour>
      <point x="365" y="616" type="curve" smooth="yes"/>
      <point x="365" y="684"/>
      <point x="301" y="727"/>
      <point x="228" y="727" type="curve" smooth="yes"/>
      <point x="173" y="727"/>
      <point x="138" y="711"/>
      <point x="110" y="623" type="curve" smooth="yes"/>
      <point x="38" y="399" type="line" smooth="yes"/>
      <point x="1" y="285"/>
      <point x="-2" y="209"/>
      <point x="116" y="198" type="curve" smooth="yes"/>
      <point x="502" y="163" type="line" smooth="yes"/>
      <point x="602" y="154"/>
      <point x="611" y="329"/>
      <point x="500" y="317" type="curve" smooth="yes"/>
      <point x="128" y="278" type="line" smooth="yes"/>
      <point x="106" y="276"/>
      <point x="88" y="292"/>
      <point x="103" y="312" type="curve" smooth="yes"/>
      <point x="130" y="348"/>
      <point x="365" y="494"/>
    </contour>
    <contour>
      <point x="277" y="575" type="line" smooth="yes"/>
      <point x="300" y="566"/>
      <point x="316" y="613"/>
      <point x="287" y="622" type="curve" smooth="yes"/>
      <point x="274" y="626" type="line" smooth="yes"/>
      <point x="245" y="635"/>
      <point x="230" y="592"/>
      <point x="250" y="585" type="curve" smooth="yes"/>
    </contour>
    <contour>
      <point x="434" y="-12" type="curve"/>
      <point x="374" y="-11" type="line"/>
      <point x="374" y="-11"/>
      <point x="388" y="-11"/>
      <point x="405" y="-11" type="curve" smooth="yes"/>
      <point x="420" y="-11"/>
      <point x="434" y="-12"/>
    </contour>
    <contour>
      <point x="310" y="-10" type="curve"/>
      <point x="247" y="-10" type="line"/>
      <point x="247" y="-10"/>
      <point x="257" y="-10"/>
      <point x="281" y="-10" type="curve" smooth="yes"/>
      <point x="296" y="-10"/>
      <point x="310" y="-10"/>
    </contour>
    <contour>
      <point x="497" y="203" type="curve" smooth="yes"/>
      <point x="472" y="203"/>
      <point x="460" y="218"/>
      <point x="460" y="240" type="curve" smooth="yes"/>
      <point x="460" y="262"/>
      <point x="476" y="276"/>
      <point x="498" y="276" type="curve" smooth="yes"/>
      <point x="521" y="276"/>
      <point x="540" y="259"/>
      <point x="540" y="240" type="curve" smooth="yes"/>
      <point x="540" y="218"/>
      <point x="519" y="203"/>
    </contour>
    <contour>
      <point x="119" y="649" type="line"/>
      <point x="204" y="630"/>
      <point x="225" y="613"/>
      <point x="218" y="588" type="curve" smooth="yes"/>
      <point x="211" y="564"/>
      <point x="188" y="556"/>
      <point x="99" y="587" type="curve"/>
    </contour>
    <contour>
      <point x="73" y="509" type="line"/>
      <point x="141" y="491"/>
      <point x="158" y="477"/>
      <point x="151" y="454" type="curve" smooth="yes"/>
      <point x="144" y="431"/>
      <point x="119" y="428"/>
      <point x="55" y="451" type="curve"/>
    </contour>
    <contour>
      <point x="370" y="343" type="curve" smooth="yes"/>
      <point x="395" y="343"/>
      <point x="412" y="361"/>
      <point x="412" y="384" type="curve" smooth="yes"/>
      <point x="412" y="408"/>
      <point x="395" y="425"/>
      <point x="370" y="425" type="curve" smooth="yes"/>
      <point x="350" y="425"/>
      <point x="333" y="408"/>
      <point x="333" y="384" type="curve" smooth="yes"/>
      <point x="333" y="361"/>
      <point x="350" y="343"/>
    </contour>
  </outline>
</glyph>
<glyph name="seven" format="2">
  <advance width="472"/>
  <unicode hex="0037"/>
  <outline>
    <contour>
      <point x="219" y="0" type="curve" smooth="yes"/>
      <point x="423" y="484" type="line" smooth="yes"/>
      <point x="486" y="634"/>
      <point x="448" y="724"/>
      <point x="269" y="686" type="curve" smooth="yes"/>
      <point x="54" y="640" type="line" smooth="yes"/>
      <point x="-4" y="628"/>
      <point x="-2" y="561"/>
      <point x="45" y="544" type="curve" smooth="yes"/>
      <point x="275" y="461" type="line" smooth="yes"/>
      <point x="308" y="449"/>
      <point x="319" y="430"/>
      <point x="297" y="392" type="curve" smooth="yes"/>
      <point x="100" y="59" type="line" smooth="yes"/>
      <point x="47" y="-30"/>
      <point x="182" y="-87"/>
    </contour>
    <contour>
      <point x="250" y="107" type="line"/>
      <point x="376" y="70" type="line" smooth="yes"/>
      <point x="420" y="57"/>
      <point x="439" y="131"/>
      <point x="399" y="141" type="curve" smooth="yes"/>
      <point x="280" y="172" type="line"/>
    </contour>
    <contour>
      <point x="316" y="272" type="line"/>
      <point x="412" y="263" type="line" smooth="yes"/>
      <point x="456" y="259"/>
      <point x="465" y="329"/>
      <point x="414" y="333" type="curve" smooth="yes"/>
      <point x="329" y="340" type="line"/>
    </contour>
    <contour>
      <point x="151" y="506" type="curve"/>
      <point x="101" y="524" type="line"/>
      <point x="108" y="571"/>
      <point x="120" y="593"/>
      <point x="144" y="589" type="curve" smooth="yes"/>
      <point x="163" y="586"/>
      <point x="173" y="566"/>
    </contour>
    <contour>
      <point x="267" y="464" type="curve"/>
      <point x="211" y="484" type="line"/>
      <point x="234" y="564"/>
      <point x="251" y="602"/>
      <point x="281" y="591" type="curve" smooth="yes"/>
      <point x="308" y="581"/>
      <point x="300" y="547"/>
    </contour>
    <contour>
      <point x="291" y="344" type="line"/>
      <point x="102" y="364" type="line" smooth="yes"/>
      <point x="50" y="370"/>
      <point x="45" y="293"/>
      <point x="93" y="289" type="curve" smooth="yes"/>
      <point x="283" y="273" type="line"/>
    </contour>
    <contour>
      <point x="161" y="65" type="curve" smooth="yes"/>
      <point x="179" y="65"/>
      <point x="193" y="47"/>
      <point x="193" y="27" type="curve" smooth="yes"/>
      <point x="193" y="9"/>
      <point x="179" y="-1"/>
      <point x="161" y="-1" type="curve" smooth="yes"/>
      <point x="141" y="-1"/>
      <point x="127" y="9"/>
      <point x="127" y="27" type="curve" smooth="yes"/>
      <point x="127" y="47"/>
      <point x="141" y="65"/>
    </contour>
    <contour>
      <point x="145" y="-16" type="curve" smooth="yes"/>
      <point x="145" y="-16"/>
      <point x="145" y="-16"/>
      <point x="145" y="-16" type="curve" smooth="yes"/>
      <point x="145" y="-16"/>
      <point x="145" y="-16"/>
      <point x="145" y="-16" type="curve" smooth="yes"/>
      <point x="145" y="-16"/>
      <point x="145" y="-16"/>
      <point x="145" y="-16" type="curve" smooth="yes"/>
      <point x="145" y="-16"/>
      <point x="145" y="-16"/>
    </contour>
    <contour>
      <point x="271" y="203" type="line"/>
      <point x="275" y="202" type="line" smooth="yes"/>
      <point x="307" y="194"/>
      <point x="320" y="250"/>
      <point x="290" y="256" type="curve" smooth="yes"/>
      <point x="285" y="257" type="line"/>
    </contour>
    <contour>
      <point x="137" y="-27" type="curve" smooth="yes"/>
      <point x="137" y="-27"/>
      <point x="137" y="-27"/>
      <point x="137" y="-27" type="curve" smooth="yes"/>
      <point x="137" y="-27"/>
      <point x="137" y="-27"/>
      <point x="137" y="-27" type="curve" smooth="yes"/>
      <point x="137" y="-27"/>
      <point x="137" y="-27"/>
      <point x="137" y="-27" type="curve" smooth="yes"/>
      <point x="137" y="-27"/>
      <point x="137" y="-27"/>
    </contour>
    <contour>
      <point x="198" y="194" type="line"/>
      <point x="116" y="216" type="line" smooth="yes"/>
      <point x="66" y="229"/>
      <point x="48" y="165"/>
      <point x="98" y="151" type="curve" smooth="yes"/>
      <point x="164" y="132" type="line"/>
    </contour>
    <contour>
      <point x="248" y="259" type="line"/>
      <point x="243" y="260" type="line" smooth="yes"/>
      <point x="216" y="265"/>
      <point x="204" y="218"/>
      <point x="229" y="210" type="curve" smooth="yes"/>
      <point x="232" y="209" type="line"/>
    </contour>
    <contour>
      <point x="91" y="334" type="curve" smooth="yes"/>
      <point x="91" y="334"/>
      <point x="91" y="334"/>
      <point x="91" y="334" type="curve" smooth="yes"/>
      <point x="91" y="334"/>
      <point x="91" y="334"/>
      <point x="91" y="334" type="curve" smooth="yes"/>
      <point x="91" y="334"/>
      <point x="91" y="334"/>
      <point x="91" y="334" type="curve" smooth="yes"/>
      <point x="91" y="334"/>
      <point x="91" y="334"/>
    </contour>
  </outline>
</glyph>
<glyph name="eight" format="2">
  <advance width="544"/>
  <unicode hex="0038"/>
  <outline>
    <contour>
      <point x="329" y="284" type="curve" smooth="yes"/>
      <point x="399" y="284"/>
      <point x="425" y="247"/>
      <point x="425" y="187" type="curve" smooth="yes"/>
      <point x="425" y="104"/>
      <point x="370" y="54"/>
      <point x="269" y="54" type="curve" smooth="yes"/>
      <point x="195" y="54"/>
      <point x="145" y="75"/>
      <point x="145" y="139" type="curve" smooth="yes"/>
      <point x="145" y="217"/>
      <point x="233" y="284"/>
    </contour>
    <contour>
      <point x="250" y="639" type="curve" smooth="yes"/>
      <point x="312" y="639"/>
      <point x="349" y="616"/>
      <point x="349" y="561" type="curve" smooth="yes"/>
      <point x="349" y="505"/>
      <point x="300" y="475"/>
      <point x="223" y="475" type="curve" smooth="yes"/>
      <point x="144" y="475"/>
      <point x="105" y="497"/>
      <point x="105" y="543" type="curve" smooth="yes"/>
      <point x="105" y="593"/>
      <point x="151" y="639"/>
    </contour>
    <contour>
      <point x="384" y="690" type="line" smooth="yes"/>
      <point x="360" y="652"/>
      <point x="411" y="622"/>
      <point x="439" y="657" type="curve" smooth="yes"/>
      <point x="485" y="715" type="line" smooth="yes"/>
      <point x="512" y="749"/>
      <point x="449" y="795"/>
      <point x="424" y="754" type="curve" smooth="yes"/>
    </contour>
    <contour>
      <point x="122" y="677" type="line" smooth="yes"/>
      <point x="139" y="636"/>
      <point x="203" y="656"/>
      <point x="191" y="697" type="curve" smooth="yes"/>
      <point x="167" y="777" type="line" smooth="yes"/>
      <point x="151" y="830"/>
      <point x="70" y="803"/>
      <point x="92" y="749" type="curve" smooth="yes"/>
    </contour>
    <contour>
      <point x="383" y="416" type="curve" smooth="yes"/>
      <point x="362" y="416"/>
      <point x="349" y="433"/>
      <point x="349" y="454" type="curve" smooth="yes"/>
      <point x="349" y="474"/>
      <point x="361" y="491"/>
      <point x="382" y="491" type="curve" smooth="yes"/>
      <point x="402" y="491"/>
      <point x="422" y="471"/>
      <point x="422" y="451" type="curve" smooth="yes"/>
      <point x="422" y="430"/>
      <point x="403" y="416"/>
    </contour>
    <contour>
      <point x="293" y="351" type="curve" smooth="yes"/>
      <point x="270" y="351"/>
      <point x="248" y="372"/>
      <point x="248" y="395" type="curve" smooth="yes"/>
      <point x="248" y="418"/>
      <point x="267" y="436"/>
      <point x="290" y="436" type="curve" smooth="yes"/>
      <point x="313" y="436"/>
      <point x="330" y="414"/>
      <point x="330" y="391" type="curve" smooth="yes"/>
      <point x="330" y="368"/>
      <point x="316" y="351"/>
    </contour>
    <contour>
      <point x="199" y="293" type="curve" smooth="yes"/>
      <point x="179" y="293"/>
      <point x="166" y="312"/>
      <point x="166" y="332" type="curve" smooth="yes"/>
      <point x="166" y="351"/>
      <point x="179" y="364"/>
      <point x="199" y="364" type="curve" smooth="yes"/>
      <point x="218" y="364"/>
      <point x="237" y="345"/>
      <point x="237" y="326" type="curve" smooth="yes"/>
      <point x="237" y="306"/>
      <point x="221" y="293"/>
    </contour>
    <contour>
      <point x="247" y="669" type="line" smooth="yes"/>
      <point x="244" y="640"/>
      <point x="306" y="637"/>
      <point x="308" y="662" type="curve" smooth="yes"/>
      <point x="309" y="673" type="line" smooth="yes"/>
      <point x="312" y="709"/>
      <point x="252" y="715"/>
      <point x="248" y="679" type="curve" smooth="yes"/>
    </contour>
    <contour>
      <point x="403" y="368" type="line"/>
      <point x="470" y="395"/>
      <point x="513" y="453"/>
      <point x="513" y="529" type="curve" smooth="yes"/>
      <point x="513" y="646"/>
      <point x="435" y="708"/>
      <point x="266" y="708" type="curve" smooth="yes"/>
      <point x="101" y="708"/>
      <point x="23" y="635"/>
      <point x="23" y="532" type="curve" smooth="yes"/>
      <point x="23" y="451"/>
      <point x="69" y="401"/>
      <point x="154" y="385" type="curve"/>
      <point x="161" y="400" type="line"/>
      <point x="84" y="375"/>
      <point x="27" y="298"/>
      <point x="27" y="200" type="curve" smooth="yes"/>
      <point x="27" y="57"/>
      <point x="116" y="-15"/>
      <point x="261" y="-15" type="curve" smooth="yes"/>
      <point x="414" y="-15"/>
      <point x="509" y="56"/>
      <point x="509" y="197" type="curve" smooth="yes"/>
      <point x="509" y="297"/>
      <point x="469" y="348"/>
      <point x="403" y="372" type="curve"/>
    </contour>
    <contour>
      <point x="533" y="44" type="line" smooth="yes"/>
      <point x="564" y="23"/>
      <point x="601" y="76"/>
      <point x="561" y="98" type="curve" smooth="yes"/>
      <point x="470" y="147" type="line" smooth="yes"/>
      <point x="441" y="163"/>
      <point x="420" y="120"/>
      <point x="441" y="106" type="curve" smooth="yes"/>
    </contour>
    <contour>
      <point x="412" y="-90" type="line" smooth="yes"/>
      <point x="433" y="-129"/>
      <point x="488" y="-100"/>
      <point x="468" y="-61" type="curve" smooth="yes"/>
      <point x="402" y="64" type="line"/>
      <point x="346" y="34" type="line"/>
    </contour>
    <contour>
      <point x="32" y="-39" type="line" smooth="yes"/>
      <point x="4" y="-79"/>
      <point x="68" y="-116"/>
      <point x="90" y="-78" type="curve" smooth="yes"/>
      <point x="159" y="41" type="line"/>
      <point x="113" y="75" type="line"/>
    </contour>
    <contour>
      <point x="218" y="-100" type="line" smooth="yes"/>
      <point x="218" y="-137"/>
      <point x="274" y="-138"/>
      <point x="276" y="-99" type="curve" smooth="yes"/>
      <point x="289" y="118" type="line" smooth="yes"/>
      <point x="292" y="171"/>
      <point x="218" y="174"/>
      <point x="218" y="121" type="curve" smooth="yes"/>
    </contour>
  </outline>
</glyph>
<glyph name="greater" format="2">
  <advance width="346"/>
  <unicode hex="003E"/>
  <outline>
    <contour>
      <point x="169" y="105" type="curve" smooth="yes"/>
      <point x="213" y="157"/>
      <point x="254" y="201"/>
      <point x="294" y="255" type="curve" smooth="yes"/>
      <point x="320" y="289"/>
      <point x="322" y="330"/>
      <point x="297" y="360" type="curve" smooth="yes"/>
      <point x="253" y="412"/>
      <point x="186" y="485"/>
      <point x="142" y="531" type="curve" smooth="yes"/>
      <point x="114" y="560"/>
      <point x="79" y="560"/>
      <point x="60" y="541" type="curve" smooth="yes"/>
      <point x="41" y="522"/>
      <point x="45" y="491"/>
      <point x="73" y="463" type="curve" smooth="yes"/>
      <point x="113" y="424"/>
      <point x="164" y="381"/>
      <point x="202" y="344" type="curve" smooth="yes"/>
      <point x="218" y="328"/>
      <point x="223" y="314"/>
      <point x="203" y="295" type="curve" smooth="yes"/>
      <point x="166" y="259"/>
      <point x="127" y="222"/>
      <point x="82" y="181" type="curve" smooth="yes"/>
      <point x="47" y="149"/>
      <point x="45" y="110"/>
      <point x="71" y="84" type="curve" smooth="yes"/>
      <point x="102" y="53"/>
      <point x="136" y="66"/>
    </contour>
  </outline>
</glyph>
<glyph name="at" format="2">
  <advance width="729"/>
  <unicode hex="0040"/>
  <outline>
    <contour>
      <point x="338" y="-83" type="curve" smooth="yes"/>
      <point x="423" y="-83"/>
      <point x="501" y="-64"/>
      <point x="554" y="-31" type="curve" smooth="yes"/>
      <point x="592" y="-7"/>
      <point x="602" y="22"/>
      <point x="585" y="49" type="curve" smooth="yes"/>
      <point x="570" y="72"/>
      <point x="540" y="76"/>
      <point x="512" y="57" type="curve" smooth="yes"/>
      <point x="461" y="25"/>
      <point x="403" y="3"/>
      <point x="331" y="3" type="curve" smooth="yes"/>
      <point x="208" y="3"/>
      <point x="116" y="86"/>
      <point x="116" y="262" type="curve" smooth="yes"/>
      <point x="116" y="586"/>
      <point x="239" y="696"/>
      <point x="380" y="696" type="curve" smooth="yes"/>
      <point x="526" y="696"/>
      <point x="616" y="570"/>
      <point x="616" y="414" type="curve" smooth="yes"/>
      <point x="616" y="285"/>
      <point x="601" y="217"/>
      <point x="550" y="217" type="curve" smooth="yes"/>
      <point x="524" y="217"/>
      <point x="507" y="234"/>
      <point x="511" y="279" type="curve" smooth="yes"/>
      <point x="516" y="334"/>
      <point x="521" y="388"/>
      <point x="524" y="443" type="curve" smooth="yes"/>
      <point x="528" y="525"/>
      <point x="484" y="579"/>
      <point x="398" y="579" type="curve" smooth="yes"/>
      <point x="296" y="579"/>
      <point x="202" y="487"/>
      <point x="202" y="321" type="curve" smooth="yes"/>
      <point x="202" y="182"/>
      <point x="265" y="130"/>
      <point x="336" y="130" type="curve" smooth="yes"/>
      <point x="384" y="130"/>
      <point x="420" y="144"/>
      <point x="447" y="179" type="curve" smooth="yes"/>
      <point x="451" y="184"/>
      <point x="455" y="184"/>
      <point x="458" y="179" type="curve" smooth="yes"/>
      <point x="476" y="148"/>
      <point x="510" y="133"/>
      <point x="544" y="133" type="curve" smooth="yes"/>
      <point x="634" y="133"/>
      <point x="706" y="216"/>
      <point x="706" y="447" type="curve" smooth="yes"/>
      <point x="706" y="678"/>
      <point x="597" y="791"/>
      <point x="398" y="791" type="curve" smooth="yes"/>
      <point x="195" y="791"/>
      <point x="32" y="657"/>
      <point x="32" y="261" type="curve" smooth="yes"/>
      <point x="32" y="63"/>
      <point x="132" y="-83"/>
    </contour>
    <contour>
      <point x="350" y="272" type="curve" smooth="yes"/>
      <point x="350" y="379"/>
      <point x="381" y="464"/>
      <point x="418" y="464" type="curve" smooth="yes"/>
      <point x="439" y="464"/>
      <point x="447" y="449"/>
      <point x="445" y="424" type="curve" smooth="yes"/>
      <point x="440" y="369"/>
      <point x="436" y="314"/>
      <point x="431" y="259" type="curve" smooth="yes"/>
      <point x="428" y="222"/>
      <point x="407" y="207"/>
      <point x="387" y="207" type="curve" smooth="yes"/>
      <point x="365" y="207"/>
      <point x="350" y="227"/>
    </contour>
    <contour>
      <point x="361" y="23" type="curve" smooth="yes"/>
      <point x="363" y="70"/>
      <point x="359" y="87"/>
      <point x="330" y="89" type="curve" smooth="yes"/>
      <point x="303" y="91"/>
      <point x="292" y="78"/>
      <point x="285" y="30" type="curve" smooth="yes"/>
      <point x="278" y="-18"/>
      <point x="269" y="-75"/>
      <point x="262" y="-137" type="curve" smooth="yes"/>
      <point x="257" y="-188"/>
      <point x="271" y="-206"/>
      <point x="299" y="-208" type="curve" smooth="yes"/>
      <point x="331" y="-210"/>
      <point x="345" y="-191"/>
      <point x="349" y="-147" type="curve" smooth="yes"/>
      <point x="355" y="-79"/>
      <point x="359" y="-22"/>
    </contour>
    <contour>
      <point x="155" y="-5" type="curve" smooth="yes"/>
      <point x="177" y="15"/>
      <point x="178" y="51"/>
      <point x="149" y="64" type="curve" smooth="yes"/>
      <point x="132" y="71"/>
      <point x="115" y="70"/>
      <point x="105" y="63" type="curve" smooth="yes"/>
      <point x="81" y="46"/>
      <point x="50" y="21"/>
      <point x="29" y="2" type="curve" smooth="yes"/>
      <point x="-4" y="-28"/>
      <point x="-10" y="-51"/>
      <point x="9" y="-75" type="curve" smooth="yes"/>
      <point x="26" y="-95"/>
      <point x="44" y="-96"/>
      <point x="81" y="-67" type="curve" smooth="yes"/>
      <point x="106" y="-47"/>
      <point x="129" y="-28"/>
    </contour>
    <contour>
      <point x="338" y="447" type="curve" smooth="yes"/>
      <point x="318" y="447"/>
      <point x="303" y="462"/>
      <point x="303" y="482" type="curve" smooth="yes"/>
      <point x="303" y="501"/>
      <point x="318" y="515"/>
      <point x="338" y="515" type="curve" smooth="yes"/>
      <point x="358" y="515"/>
      <point x="372" y="501"/>
      <point x="372" y="482" type="curve" smooth="yes"/>
      <point x="372" y="462"/>
      <point x="358" y="447"/>
    </contour>
    <contour>
      <point x="289" y="345" type="curve" smooth="yes"/>
      <point x="270" y="345"/>
      <point x="253" y="360"/>
      <point x="253" y="381" type="curve" smooth="yes"/>
      <point x="253" y="402"/>
      <point x="268" y="416"/>
      <point x="289" y="416" type="curve" smooth="yes"/>
      <point x="310" y="416"/>
      <point x="324" y="402"/>
      <point x="324" y="381" type="curve" smooth="yes"/>
      <point x="324" y="360"/>
      <point x="309" y="345"/>
    </contour>
    <contour>
      <point x="499" y="8" type="curve" smooth="yes"/>
      <point x="495" y="15"/>
      <point x="485" y="20"/>
      <point x="455" y="9" type="curve" smooth="yes"/>
      <point x="430" y="-1"/>
      <point x="427" y="-11"/>
      <point x="430" y="-21" type="curve" smooth="yes"/>
      <point x="431" y="-25"/>
      <point x="434" y="-33"/>
      <point x="436" y="-37" type="curve" smooth="yes"/>
      <point x="443" y="-52"/>
      <point x="455" y="-60"/>
      <point x="484" y="-48" type="curve" smooth="yes"/>
      <point x="512" y="-37"/>
      <point x="514" y="-23"/>
      <point x="509" y="-10" type="curve" smooth="yes"/>
      <point x="505" y="-1"/>
      <point x="502" y="4"/>
    </contour>
  </outline>
</glyph>
<glyph name="B" format="2">
  <advance width="568"/>
  <unicode hex="0042"/>
  <unicode hex="0062"/>
  <anchor x="278" y="0" name="bottom"/>
  <anchor x="275" y="733" name="top"/>
  <outline>
    <contour>
      <point x="85" y="100" type="curve" smooth="yes"/>
      <point x="92" y="7"/>
      <point x="126" y="-32"/>
      <point x="262" y="-32" type="curve" smooth="yes"/>
      <point x="413" y="-32"/>
      <point x="533" y="49"/>
      <point x="533" y="204" type="curve" smooth="yes"/>
      <point x="533" y="312"/>
      <point x="474" y="360"/>
      <point x="394" y="368" type="curve" smooth="yes"/>
      <point x="384" y="369"/>
      <point x="382" y="374"/>
      <point x="382" y="379" type="curve" smooth="yes"/>
      <point x="382" y="401"/>
      <point x="459" y="411"/>
      <point x="459" y="519" type="curve" smooth="yes"/>
      <point x="459" y="614"/>
      <point x="377" y="625"/>
      <point x="259" y="632" type="curve" smooth="yes"/>
      <point x="133" y="640"/>
      <point x="99" y="636"/>
      <point x="80" y="617" type="curve" smooth="yes"/>
      <point x="66" y="603"/>
      <point x="58" y="584"/>
      <point x="59" y="555" type="curve" smooth="yes"/>
      <point x="65" y="402"/>
      <point x="73" y="251"/>
    </contour>
    <contour>
      <point x="247" y="568" type="curve" smooth="yes"/>
      <point x="344" y="568"/>
      <point x="379" y="550"/>
      <point x="379" y="508" type="curve" smooth="yes"/>
      <point x="379" y="462"/>
      <point x="335" y="421"/>
      <point x="236" y="396" type="curve" smooth="yes"/>
      <point x="184" y="383"/>
      <point x="165" y="392"/>
      <point x="171" y="497" type="curve" smooth="yes"/>
      <point x="174" y="547"/>
      <point x="188" y="568"/>
    </contour>
    <contour>
      <point x="166" y="153" type="curve" smooth="yes"/>
      <point x="166" y="273"/>
      <point x="186" y="317"/>
      <point x="247" y="319" type="curve" smooth="yes"/>
      <point x="299" y="321"/>
      <point x="335" y="298"/>
      <point x="329" y="194" type="curve" smooth="yes"/>
      <point x="322" y="79"/>
      <point x="295" y="32"/>
      <point x="235" y="32" type="curve" smooth="yes"/>
      <point x="183" y="32"/>
      <point x="166" y="60"/>
    </contour>
    <contour>
      <point x="393" y="262" type="curve" smooth="yes"/>
      <point x="377" y="262"/>
      <point x="364" y="275"/>
      <point x="364" y="290" type="curve" smooth="yes"/>
      <point x="364" y="306"/>
      <point x="377" y="319"/>
      <point x="393" y="319" type="curve" smooth="yes"/>
      <point x="408" y="319"/>
      <point x="421" y="306"/>
      <point x="421" y="290" type="curve" smooth="yes"/>
      <point x="421" y="275"/>
      <point x="408" y="262"/>
    </contour>
    <contour>
      <point x="438" y="148" type="curve" smooth="yes"/>
      <point x="413" y="148"/>
      <point x="395" y="166"/>
      <point x="395" y="190" type="curve" smooth="yes"/>
      <point x="395" y="212"/>
      <point x="413" y="230"/>
      <point x="438" y="230" type="curve" smooth="yes"/>
      <point x="462" y="230"/>
      <point x="480" y="212"/>
      <point x="480" y="190" type="curve" smooth="yes"/>
      <point x="480" y="166"/>
      <point x="462" y="148"/>
    </contour>
    <contour>
      <point x="393" y="54" type="curve" smooth="yes"/>
      <point x="375" y="54"/>
      <point x="359" y="70"/>
      <point x="359" y="88" type="curve" smooth="yes"/>
      <point x="359" y="105"/>
      <point x="375" y="121"/>
      <point x="393" y="121" type="curve" smooth="yes"/>
      <point x="410" y="121"/>
      <point x="426" y="105"/>
      <point x="426" y="88" type="curve" smooth="yes"/>
      <point x="426" y="70"/>
      <point x="410" y="54"/>
    </contour>
    <contour>
      <point x="164" y="606" type="line"/>
      <point x="133" y="696"/>
      <point x="125" y="720"/>
      <point x="96" y="720" type="curve" smooth="yes"/>
      <point x="58" y="720"/>
      <point x="60" y="687"/>
      <point x="92" y="581" type="curve"/>
    </contour>
    <contour>
      <point x="266" y="624" type="line"/>
      <point x="282" y="745"/>
      <point x="284" y="780"/>
      <point x="239" y="780" type="curve" smooth="yes"/>
      <point x="206" y="780"/>
      <point x="198" y="751"/>
      <point x="201" y="624" type="curve"/>
    </contour>
    <contour>
      <point x="378" y="596" type="line"/>
      <point x="408" y="686"/>
      <point x="413" y="720"/>
      <point x="373" y="720" type="curve" smooth="yes"/>
      <point x="347" y="720"/>
      <point x="337" y="703"/>
      <point x="313" y="621" type="curve"/>
    </contour>
    <contour>
      <point x="417" y="554" type="line"/>
      <point x="425" y="575"/>
      <point x="423" y="590"/>
      <point x="408" y="597" type="curve" smooth="yes"/>
      <point x="386" y="608"/>
      <point x="376" y="600"/>
      <point x="368" y="571" type="curve"/>
    </contour>
    <contour>
      <point x="532" y="585" type="curve" smooth="yes"/>
      <point x="561" y="602"/>
      <point x="564" y="616"/>
      <point x="556" y="635" type="curve" smooth="yes"/>
      <point x="547" y="655"/>
      <point x="528" y="660"/>
      <point x="496" y="641" type="curve" smooth="yes"/>
      <point x="477" y="630"/>
      <point x="445" y="609"/>
      <point x="414" y="587" type="curve" smooth="yes"/>
      <point x="401" y="578"/>
      <point x="391" y="565"/>
      <point x="399" y="550" type="curve" smooth="yes"/>
      <point x="411" y="527"/>
      <point x="427" y="527"/>
      <point x="442" y="535" type="curve" smooth="yes"/>
      <point x="471" y="550"/>
      <point x="508" y="571"/>
    </contour>
    <contour>
      <point x="416" y="453" type="line"/>
      <point x="491" y="422"/>
      <point x="516" y="422"/>
      <point x="527" y="449" type="curve" smooth="yes"/>
      <point x="541" y="483"/>
      <point x="524" y="498"/>
      <point x="438" y="514" type="curve"/>
    </contour>
    <contour>
      <point x="194" y="-20" type="curve" smooth="yes"/>
      <point x="204" y="4"/>
      <point x="204" y="21"/>
      <point x="186" y="30" type="curve" smooth="yes"/>
      <point x="168" y="39"/>
      <point x="149" y="37"/>
      <point x="132" y="7" type="curve" smooth="yes"/>
      <point x="117" y="-20"/>
      <point x="110" y="-34"/>
      <point x="99" y="-56" type="curve" smooth="yes"/>
      <point x="87" y="-79"/>
      <point x="86" y="-105"/>
      <point x="110" y="-115" type="curve" smooth="yes"/>
      <point x="134" y="-124"/>
      <point x="153" y="-111"/>
      <point x="164" y="-88" type="curve" smooth="yes"/>
      <point x="176" y="-62"/>
      <point x="183" y="-47"/>
    </contour>
  </outline>
</glyph>
<glyph name="C" format="2">
  <advance width="514"/>
  <unicode hex="0043"/>
  <unicode hex="0063"/>
  <anchor x="226" y="0" name="cedilla"/>
  <anchor x="331" y="733" name="top"/>
  <outline>
    <contour>
      <point x="293" y="10" type="curve" smooth="yes"/>
      <point x="347" y="10"/>
      <point x="410" y="26"/>
      <point x="456" y="66" type="curve" smooth="yes"/>
      <point x="541" y="140"/>
      <point x="522" y="284"/>
      <point x="428" y="284" type="curve" smooth="yes"/>
      <point x="411" y="284"/>
      <point x="393" y="277"/>
      <point x="383" y="269" type="curve"/>
      <point x="440" y="189"/>
      <point x="446" y="150"/>
      <point x="420" y="141" type="curve" smooth="yes"/>
      <point x="399" y="134"/>
      <point x="381" y="146"/>
      <point x="335" y="243" type="curve"/>
      <point x="321" y="232"/>
      <point x="298" y="215"/>
      <point x="284" y="206" type="curve"/>
      <point x="317" y="145"/>
      <point x="317" y="113"/>
      <point x="299" y="105" type="curve" smooth="yes"/>
      <point x="278" y="96"/>
      <point x="257" y="110"/>
      <point x="237" y="167" type="curve"/>
      <point x="229" y="162"/>
      <point x="218" y="159"/>
      <point x="207" y="159" type="curve" smooth="yes"/>
      <point x="164" y="159"/>
      <point x="132" y="205"/>
      <point x="132" y="325" type="curve" smooth="yes"/>
      <point x="132" y="475"/>
      <point x="194" y="581"/>
      <point x="266" y="610" type="curve" smooth="yes"/>
      <point x="284" y="617"/>
      <point x="294" y="619"/>
      <point x="304" y="620" type="curve" smooth="yes"/>
      <point x="313" y="621"/>
      <point x="322" y="621"/>
      <point x="331" y="621" type="curve" smooth="yes"/>
      <point x="340" y="621"/>
      <point x="348" y="620"/>
      <point x="358" y="619" type="curve" smooth="yes"/>
      <point x="368" y="618"/>
      <point x="375" y="617"/>
      <point x="381" y="616" type="curve" smooth="yes"/>
      <point x="388" y="615"/>
      <point x="401" y="612"/>
      <point x="412" y="609" type="curve" smooth="yes"/>
      <point x="419" y="607"/>
      <point x="430" y="604"/>
      <point x="441" y="604" type="curve" smooth="yes"/>
      <point x="455" y="604"/>
      <point x="472" y="616"/>
      <point x="472" y="639" type="curve" smooth="yes"/>
      <point x="472" y="685"/>
      <point x="411" y="708"/>
      <point x="336" y="708" type="curve" smooth="yes"/>
      <point x="162" y="708"/>
      <point x="41" y="566"/>
      <point x="41" y="310" type="curve" smooth="yes"/>
      <point x="41" y="141"/>
      <point x="108" y="10"/>
    </contour>
    <contour>
      <point x="236" y="761" type="curve" smooth="yes"/>
      <point x="224" y="787"/>
      <point x="200" y="791"/>
      <point x="181" y="783" type="curve" smooth="yes"/>
      <point x="161" y="774"/>
      <point x="148" y="752"/>
      <point x="164" y="724" type="curve" smooth="yes"/>
      <point x="181" y="694"/>
      <point x="198" y="666"/>
      <point x="215" y="640" type="curve" smooth="yes"/>
      <point x="229" y="619"/>
      <point x="247" y="615"/>
      <point x="263" y="625" type="curve" smooth="yes"/>
      <point x="279" y="635"/>
      <point x="283" y="649"/>
      <point x="276" y="669" type="curve" smooth="yes"/>
      <point x="265" y="701"/>
      <point x="251" y="730"/>
    </contour>
    <contour>
      <point x="65" y="571" type="curve" smooth="yes"/>
      <point x="32" y="582"/>
      <point x="9" y="575"/>
      <point x="0" y="549" type="curve" smooth="yes"/>
      <point x="-8" y="525"/>
      <point x="2" y="506"/>
      <point x="39" y="493" type="curve" smooth="yes"/>
      <point x="86" y="477"/>
      <point x="153" y="456"/>
      <point x="209" y="441" type="curve" smooth="yes"/>
      <point x="238" y="432"/>
      <point x="259" y="438"/>
      <point x="265" y="459" type="curve" smooth="yes"/>
      <point x="271" y="480"/>
      <point x="258" y="497"/>
      <point x="233" y="507" type="curve" smooth="yes"/>
      <point x="180" y="530"/>
      <point x="119" y="553"/>
    </contour>
    <contour>
      <point x="359" y="363" type="curve" smooth="yes"/>
      <point x="391" y="363"/>
      <point x="418" y="390"/>
      <point x="418" y="424" type="curve" smooth="yes"/>
      <point x="418" y="456"/>
      <point x="391" y="483"/>
      <point x="359" y="483" type="curve" smooth="yes"/>
      <point x="325" y="483"/>
      <point x="298" y="456"/>
      <point x="298" y="424" type="curve" smooth="yes"/>
      <point x="298" y="390"/>
      <point x="325" y="363"/>
    </contour>
    <contour>
      <point x="408" y="73" type="curve" smooth="yes"/>
      <point x="402" y="80"/>
      <point x="394" y="80"/>
      <point x="381" y="74" type="curve" smooth="yes"/>
      <point x="370" y="69"/>
      <point x="364" y="62"/>
      <point x="368" y="53" type="curve" smooth="yes"/>
      <point x="369" y="50"/>
      <point x="372" y="46"/>
      <point x="374" y="43" type="curve" smooth="yes"/>
      <point x="379" y="37"/>
      <point x="390" y="36"/>
      <point x="403" y="43" type="curve" smooth="yes"/>
      <point x="412" y="48"/>
      <point x="417" y="54"/>
      <point x="414" y="63" type="curve" smooth="yes"/>
      <point x="413" y="67"/>
      <point x="411" y="70"/>
    </contour>
    <contour>
      <point x="329" y="68" type="curve" smooth="yes"/>
      <point x="326" y="85"/>
      <point x="308" y="89"/>
      <point x="289" y="87" type="curve" smooth="yes"/>
      <point x="271" y="85"/>
      <point x="256" y="74"/>
      <point x="256" y="58" type="curve" smooth="yes"/>
      <point x="256" y="52"/>
      <point x="257" y="46"/>
      <point x="258" y="42" type="curve" smooth="yes"/>
      <point x="262" y="27"/>
      <point x="276" y="19"/>
      <point x="294" y="21" type="curve" smooth="yes"/>
      <point x="313" y="23"/>
      <point x="332" y="34"/>
      <point x="331" y="50" type="curve" smooth="yes"/>
      <point x="331" y="54"/>
      <point x="330" y="62"/>
    </contour>
  </outline>
</glyph>
<glyph name="D" format="2">
  <advance width="620"/>
  <unicode hex="0044"/>
  <unicode hex="0064"/>
  <anchor x="278" y="0" name="bottom"/>
  <anchor x="290" y="691" name="top"/>
  <outline>
    <contour>
      <point x="84" y="76" type="curve" smooth="yes"/>
      <point x="82" y="-14"/>
      <point x="141" y="-30"/>
      <point x="245" y="-30" type="curve" smooth="yes"/>
      <point x="475" y="-30"/>
      <point x="580" y="109"/>
      <point x="580" y="336" type="curve" smooth="yes"/>
      <point x="580" y="577"/>
      <point x="470" y="699"/>
      <point x="219" y="699" type="curve" smooth="yes"/>
      <point x="137" y="699"/>
      <point x="102" y="677"/>
      <point x="100" y="614" type="curve" smooth="yes"/>
      <point x="96" y="508"/>
      <point x="92" y="401"/>
      <point x="88" y="294" type="curve" smooth="yes"/>
      <point x="87" y="282"/>
      <point x="87" y="269"/>
      <point x="87" y="257" type="curve" smooth="yes"/>
      <point x="87" y="245"/>
      <point x="86" y="234"/>
      <point x="86" y="223" type="curve" smooth="yes"/>
      <point x="86" y="202"/>
      <point x="85" y="180"/>
      <point x="85" y="158" type="curve" smooth="yes"/>
      <point x="85" y="147"/>
      <point x="85" y="137"/>
      <point x="84" y="126" type="curve" smooth="yes"/>
      <point x="84" y="116"/>
      <point x="84" y="106"/>
      <point x="84" y="96" type="curve" smooth="yes"/>
      <point x="84" y="89"/>
      <point x="84" y="83"/>
    </contour>
    <contour>
      <point x="170" y="107" type="curve" smooth="yes"/>
      <point x="173" y="269"/>
      <point x="179" y="432"/>
      <point x="186" y="594" type="curve" smooth="yes"/>
      <point x="187" y="621"/>
      <point x="199" y="632"/>
      <point x="226" y="632" type="curve" smooth="yes"/>
      <point x="275" y="632"/>
      <point x="373" y="581"/>
      <point x="373" y="364" type="curve" smooth="yes"/>
      <point x="373" y="130"/>
      <point x="292" y="49"/>
      <point x="217" y="49" type="curve" smooth="yes"/>
      <point x="180" y="49"/>
      <point x="169" y="64"/>
    </contour>
    <contour>
      <point x="477" y="291" type="curve" smooth="yes"/>
      <point x="452" y="291"/>
      <point x="429" y="313"/>
      <point x="429" y="339" type="curve" smooth="yes"/>
      <point x="429" y="364"/>
      <point x="452" y="383"/>
      <point x="477" y="383" type="curve" smooth="yes"/>
      <point x="502" y="383"/>
      <point x="523" y="364"/>
      <point x="523" y="339" type="curve" smooth="yes"/>
      <point x="523" y="313"/>
      <point x="502" y="291"/>
    </contour>
    <contour>
      <point x="454" y="155" type="curve" smooth="yes"/>
      <point x="435" y="155"/>
      <point x="416" y="175"/>
      <point x="416" y="195" type="curve" smooth="yes"/>
      <point x="416" y="217"/>
      <point x="435" y="233"/>
      <point x="454" y="233" type="curve" smooth="yes"/>
      <point x="478" y="233"/>
      <point x="494" y="217"/>
      <point x="494" y="195" type="curve" smooth="yes"/>
      <point x="494" y="175"/>
      <point x="478" y="155"/>
    </contour>
    <contour>
      <point x="453" y="443" type="curve" smooth="yes"/>
      <point x="430" y="443"/>
      <point x="410" y="462"/>
      <point x="410" y="487" type="curve" smooth="yes"/>
      <point x="410" y="509"/>
      <point x="430" y="529"/>
      <point x="453" y="529" type="curve" smooth="yes"/>
      <point x="476" y="529"/>
      <point x="495" y="509"/>
      <point x="495" y="487" type="curve" smooth="yes"/>
      <point x="495" y="462"/>
      <point x="476" y="443"/>
    </contour>
    <contour>
      <point x="73" y="447" type="curve" smooth="yes"/>
      <point x="25" y="449"/>
      <point x="-2" y="440"/>
      <point x="-2" y="410" type="curve" smooth="yes"/>
      <point x="-2" y="381"/>
      <point x="23" y="373"/>
      <point x="62" y="373" type="curve" smooth="yes"/>
      <point x="108" y="372"/>
      <point x="155" y="371"/>
      <point x="201" y="372" type="curve" smooth="yes"/>
      <point x="249" y="374"/>
      <point x="269" y="382"/>
      <point x="269" y="405" type="curve" smooth="yes"/>
      <point x="269" y="423"/>
      <point x="255" y="435"/>
      <point x="202" y="439" type="curve" smooth="yes"/>
      <point x="159" y="443"/>
      <point x="116" y="445"/>
    </contour>
    <contour>
      <point x="67" y="303" type="curve" smooth="yes"/>
      <point x="23" y="296"/>
      <point x="1" y="288"/>
      <point x="1" y="265" type="curve" smooth="yes"/>
      <point x="1" y="239"/>
      <point x="25" y="235"/>
      <point x="73" y="236" type="curve" smooth="yes"/>
      <point x="117" y="238"/>
      <point x="161" y="241"/>
      <point x="205" y="246" type="curve" smooth="yes"/>
      <point x="254" y="251"/>
      <point x="273" y="259"/>
      <point x="273" y="286" type="curve" smooth="yes"/>
      <point x="273" y="316"/>
      <point x="248" y="322"/>
      <point x="194" y="317" type="curve" smooth="yes"/>
      <point x="151" y="314"/>
      <point x="109" y="309"/>
    </contour>
    <contour>
      <point x="439" y="110" type="curve" smooth="yes"/>
      <point x="430" y="114"/>
      <point x="416" y="108"/>
      <point x="407" y="97" type="curve" smooth="yes"/>
      <point x="398" y="86"/>
      <point x="396" y="74"/>
      <point x="402" y="65" type="curve" smooth="yes"/>
      <point x="404" y="62"/>
      <point x="406" y="60"/>
      <point x="408" y="59" type="curve" smooth="yes"/>
      <point x="421" y="53"/>
      <point x="435" y="56"/>
      <point x="445" y="68" type="curve" smooth="yes"/>
      <point x="455" y="79"/>
      <point x="460" y="95"/>
      <point x="446" y="105" type="curve" smooth="yes"/>
      <point x="444" y="107"/>
      <point x="441" y="109"/>
    </contour>
  </outline>
</glyph>
<glyph name="H" format="2">
  <advance width="608"/>
  <unicode hex="0048"/>
  <unicode hex="0068"/>
  <anchor x="248" y="-20" name="bottom"/>
  <anchor x="300" y="710" name="top"/>
  <outline>
    <contour>
      <point x="77" y="40" type="curve" smooth="yes"/>
      <point x="78" y="10"/>
      <point x="91" y="-8"/>
      <point x="124" y="-8" type="curve" smooth="yes"/>
      <point x="160" y="-8"/>
      <point x="172" y="14"/>
      <point x="170" y="41" type="curve" smooth="yes"/>
      <point x="165" y="114"/>
      <point x="158" y="171"/>
      <point x="154" y="238" type="curve" smooth="yes"/>
      <point x="153" y="255"/>
      <point x="160" y="262"/>
      <point x="177" y="262" type="curve" smooth="yes"/>
      <point x="185" y="262"/>
      <point x="194" y="262"/>
      <point x="202" y="262" type="curve"/>
      <point x="203" y="362"/>
      <point x="213" y="386"/>
      <point x="240" y="386" type="curve" smooth="yes"/>
      <point x="268" y="386"/>
      <point x="274" y="362"/>
      <point x="266" y="260" type="curve"/>
      <point x="288" y="259"/>
      <point x="309" y="258"/>
      <point x="331" y="257" type="curve"/>
      <point x="333" y="322"/>
      <point x="344" y="341"/>
      <point x="367" y="341" type="curve" smooth="yes"/>
      <point x="391" y="341"/>
      <point x="399" y="316"/>
      <point x="397" y="253" type="curve"/>
      <point x="404" y="253"/>
      <point x="411" y="252"/>
      <point x="418" y="252" type="curve" smooth="yes"/>
      <point x="439" y="251"/>
      <point x="445" y="245"/>
      <point x="445" y="228" type="curve" smooth="yes"/>
      <point x="446" y="175"/>
      <point x="441" y="128"/>
      <point x="441" y="75" type="curve" smooth="yes"/>
      <point x="441" y="46"/>
      <point x="455" y="24"/>
      <point x="488" y="24" type="curve" smooth="yes"/>
      <point x="521" y="24"/>
      <point x="535" y="45"/>
      <point x="534" y="74" type="curve" smooth="yes"/>
      <point x="528" y="278"/>
      <point x="520" y="483"/>
      <point x="511" y="672" type="curve" smooth="yes"/>
      <point x="509" y="702"/>
      <point x="496" y="727"/>
      <point x="463" y="727" type="curve" smooth="yes"/>
      <point x="430" y="727"/>
      <point x="417" y="699"/>
      <point x="420" y="667" type="curve" smooth="yes"/>
      <point x="425" y="600"/>
      <point x="434" y="522"/>
      <point x="439" y="445" type="curve" smooth="yes"/>
      <point x="440" y="425"/>
      <point x="432" y="413"/>
      <point x="410" y="418" type="curve" smooth="yes"/>
      <point x="340" y="434"/>
      <point x="273" y="452"/>
      <point x="205" y="473" type="curve" smooth="yes"/>
      <point x="182" y="480"/>
      <point x="179" y="488"/>
      <point x="176" y="509" type="curve" smooth="yes"/>
      <point x="167" y="564"/>
      <point x="163" y="614"/>
      <point x="156" y="653" type="curve" smooth="yes"/>
      <point x="151" y="684"/>
      <point x="139" y="701"/>
      <point x="113" y="701" type="curve" smooth="yes"/>
      <point x="85" y="700"/>
      <point x="72" y="680"/>
      <point x="72" y="645" type="curve" smooth="yes"/>
      <point x="72" y="636"/>
      <point x="72" y="627"/>
      <point x="72" y="618" type="curve" smooth="yes"/>
      <point x="72" y="608"/>
      <point x="72" y="598"/>
      <point x="72" y="588" type="curve" smooth="yes"/>
      <point x="72" y="578"/>
      <point x="72" y="568"/>
      <point x="72" y="557" type="curve" smooth="yes"/>
      <point x="72" y="542"/>
      <point x="72" y="527"/>
      <point x="72" y="513" type="curve" smooth="yes"/>
      <point x="72" y="502"/>
      <point x="72" y="491"/>
      <point x="72" y="481" type="curve" smooth="yes"/>
      <point x="72" y="470"/>
      <point x="72" y="459"/>
      <point x="72" y="449" type="curve" smooth="yes"/>
      <point x="72" y="315"/>
      <point x="74" y="177"/>
    </contour>
    <contour>
      <point x="132" y="406" type="curve" smooth="yes"/>
      <point x="153" y="406"/>
      <point x="173" y="424"/>
      <point x="173" y="446" type="curve" smooth="yes"/>
      <point x="173" y="467"/>
      <point x="153" y="487"/>
      <point x="132" y="487" type="curve" smooth="yes"/>
      <point x="110" y="487"/>
      <point x="92" y="467"/>
      <point x="92" y="446" type="curve" smooth="yes"/>
      <point x="92" y="424"/>
      <point x="110" y="406"/>
    </contour>
    <contour>
      <point x="531" y="627" type="curve" smooth="yes"/>
      <point x="482" y="631"/>
      <point x="433" y="633"/>
      <point x="369" y="633" type="curve" smooth="yes"/>
      <point x="323" y="633"/>
      <point x="297" y="627"/>
      <point x="297" y="597" type="curve" smooth="yes"/>
      <point x="297" y="572"/>
      <point x="318" y="563"/>
      <point x="368" y="561" type="curve" smooth="yes"/>
      <point x="432" y="559"/>
      <point x="481" y="559"/>
      <point x="531" y="561" type="curve" smooth="yes"/>
      <point x="581" y="562"/>
      <point x="601" y="571"/>
      <point x="601" y="592" type="curve" smooth="yes"/>
      <point x="601" y="615"/>
      <point x="586" y="622"/>
    </contour>
    <contour>
      <point x="299" y="78" type="curve" smooth="yes"/>
      <point x="331" y="78"/>
      <point x="357" y="104"/>
      <point x="357" y="136" type="curve" smooth="yes"/>
      <point x="357" y="168"/>
      <point x="331" y="194"/>
      <point x="299" y="194" type="curve" smooth="yes"/>
      <point x="267" y="194"/>
      <point x="241" y="168"/>
      <point x="241" y="136" type="curve" smooth="yes"/>
      <point x="241" y="104"/>
      <point x="267" y="78"/>
    </contour>
    <contour>
      <point x="122" y="665" type="curve" smooth="yes"/>
      <point x="118" y="665"/>
      <point x="114" y="665"/>
      <point x="110" y="665" type="curve" smooth="yes"/>
      <point x="91" y="665"/>
      <point x="76" y="659"/>
      <point x="76" y="632" type="curve" smooth="yes"/>
      <point x="76" y="605"/>
      <point x="88" y="594"/>
      <point x="108" y="594" type="curve" smooth="yes"/>
      <point x="112" y="594"/>
      <point x="116" y="594"/>
      <point x="120" y="594" type="curve" smooth="yes"/>
      <point x="140" y="594"/>
      <point x="152" y="601"/>
      <point x="152" y="630" type="curve" smooth="yes"/>
      <point x="152" y="656"/>
      <point x="144" y="665"/>
    </contour>
  </outline>
</glyph>
<glyph name="M" format="2">
  <advance width="768"/>
  <unicode hex="004D"/>
  <unicode hex="006D"/>
  <anchor x="377" y="0" name="bottom"/>
  <anchor x="389" y="700" name="top"/>
  <outline>
    <contour>
      <point x="54" y="101" type="curve" smooth="yes"/>
      <point x="51" y="64"/>
      <point x="61" y="45"/>
      <point x="83" y="45" type="curve" smooth="yes"/>
      <point x="101" y="45"/>
      <point x="116" y="55"/>
      <point x="124" y="83" type="curve" smooth="yes"/>
      <point x="150" y="174"/>
      <point x="181" y="303"/>
      <point x="206" y="384" type="curve" smooth="yes"/>
      <point x="214" y="410"/>
      <point x="241" y="414"/>
      <point x="256" y="387" type="curve" smooth="yes"/>
      <point x="293" y="319"/>
      <point x="322" y="239"/>
      <point x="361" y="170" type="curve" smooth="yes"/>
      <point x="373" y="149"/>
      <point x="387" y="134"/>
      <point x="409" y="134" type="curve" smooth="yes"/>
      <point x="430" y="134"/>
      <point x="444" y="146"/>
      <point x="454" y="170" type="curve" smooth="yes"/>
      <point x="487" y="249"/>
      <point x="516" y="346"/>
      <point x="546" y="420" type="curve" smooth="yes"/>
      <point x="558" y="449"/>
      <point x="583" y="448"/>
      <point x="588" y="417" type="curve" smooth="yes"/>
      <point x="606" y="297"/>
      <point x="612" y="186"/>
      <point x="631" y="55" type="curve" smooth="yes"/>
      <point x="637" y="16"/>
      <point x="656" y="-2"/>
      <point x="682" y="-2" type="curve" smooth="yes"/>
      <point x="713" y="-2"/>
      <point x="736" y="22"/>
      <point x="730" y="68" type="curve" smooth="yes"/>
      <point x="705" y="245"/>
      <point x="674" y="445"/>
      <point x="639" y="630" type="curve" smooth="yes"/>
      <point x="632" y="669"/>
      <point x="615" y="685"/>
      <point x="595" y="685" type="curve" smooth="yes"/>
      <point x="579" y="685"/>
      <point x="566" y="678"/>
      <point x="544" y="647" type="curve" smooth="yes"/>
      <point x="488" y="569"/>
      <point x="445" y="490"/>
      <point x="390" y="418" type="curve" smooth="yes"/>
      <point x="382" y="408"/>
      <point x="374" y="403"/>
      <point x="366" y="403" type="curve" smooth="yes"/>
      <point x="357" y="403"/>
      <point x="350" y="409"/>
      <point x="345" y="421" type="curve" smooth="yes"/>
      <point x="338" y="436"/>
      <point x="331" y="452"/>
      <point x="324" y="469" type="curve" smooth="yes"/>
      <point x="321" y="478"/>
      <point x="317" y="487"/>
      <point x="313" y="497" type="curve" smooth="yes"/>
      <point x="309" y="508"/>
      <point x="305" y="519"/>
      <point x="301" y="530" type="curve" smooth="yes"/>
      <point x="297" y="542"/>
      <point x="292" y="554"/>
      <point x="288" y="566" type="curve"/>
      <point x="193" y="535"/>
      <point x="162" y="532"/>
      <point x="155" y="561" type="curve" smooth="yes"/>
      <point x="149" y="586"/>
      <point x="170" y="603"/>
      <point x="265" y="630" type="curve"/>
      <point x="262" y="640"/>
      <point x="258" y="650"/>
      <point x="254" y="660" type="curve" smooth="yes"/>
      <point x="236" y="708"/>
      <point x="214" y="722"/>
      <point x="183" y="722" type="curve" smooth="yes"/>
      <point x="148" y="722"/>
      <point x="117" y="701"/>
      <point x="109" y="635" type="curve" smooth="yes"/>
      <point x="106" y="609"/>
      <point x="103" y="583"/>
      <point x="99" y="556" type="curve" smooth="yes"/>
      <point x="98" y="545"/>
      <point x="97" y="534"/>
      <point x="95" y="523" type="curve" smooth="yes"/>
      <point x="94" y="512"/>
      <point x="93" y="502"/>
      <point x="92" y="491" type="curve" smooth="yes"/>
      <point x="90" y="476"/>
      <point x="89" y="461"/>
      <point x="87" y="446" type="curve" smooth="yes"/>
      <point x="86" y="436"/>
      <point x="85" y="426"/>
      <point x="84" y="416" type="curve" smooth="yes"/>
      <point x="82" y="406"/>
      <point x="81" y="395"/>
      <point x="80" y="385" type="curve" smooth="yes"/>
      <point x="70" y="288"/>
      <point x="61" y="190"/>
    </contour>
    <contour>
      <point x="409" y="266" type="curve" smooth="yes"/>
      <point x="383" y="266"/>
      <point x="363" y="286"/>
      <point x="363" y="312" type="curve" smooth="yes"/>
      <point x="363" y="337"/>
      <point x="383" y="357"/>
      <point x="409" y="357" type="curve" smooth="yes"/>
      <point x="434" y="357"/>
      <point x="454" y="337"/>
      <point x="454" y="312" type="curve" smooth="yes"/>
      <point x="454" y="286"/>
      <point x="434" y="266"/>
    </contour>
    <contour>
      <point x="411" y="170" type="curve" smooth="yes"/>
      <point x="427" y="170"/>
      <point x="441" y="183"/>
      <point x="441" y="201" type="curve" smooth="yes"/>
      <point x="441" y="218"/>
      <point x="427" y="232"/>
      <point x="411" y="232" type="curve" smooth="yes"/>
      <point x="392" y="232"/>
      <point x="379" y="218"/>
      <point x="379" y="201" type="curve" smooth="yes"/>
      <point x="379" y="183"/>
      <point x="392" y="170"/>
    </contour>
    <contour>
      <point x="660" y="76" type="curve" smooth="yes"/>
      <point x="693" y="78"/>
      <point x="712" y="88"/>
      <point x="712" y="113" type="curve" smooth="yes"/>
      <point x="712" y="143"/>
      <point x="689" y="155"/>
      <point x="651" y="149" type="curve" smooth="yes"/>
      <point x="619" y="145"/>
      <point x="586" y="141"/>
      <point x="554" y="137" type="curve" smooth="yes"/>
      <point x="524" y="133"/>
      <point x="506" y="123"/>
      <point x="506" y="102" type="curve" smooth="yes"/>
      <point x="506" y="73"/>
      <point x="528" y="66"/>
      <point x="561" y="69" type="curve" smooth="yes"/>
      <point x="594" y="71"/>
      <point x="627" y="74"/>
    </contour>
  </outline>
</glyph>
<glyph name="R" format="2">
  <advance width="602"/>
  <unicode hex="0052"/>
  <unicode hex="0072"/>
  <anchor x="250" y="19" name="bottom"/>
  <anchor x="327" y="722" name="top"/>
  <outline>
    <contour>
      <point x="62" y="48" type="curve" smooth="yes"/>
      <point x="62" y="11"/>
      <point x="68" y="-13"/>
      <point x="96" y="-13" type="curve" smooth="yes"/>
      <point x="116" y="-13"/>
      <point x="127" y="-5"/>
      <point x="133" y="11" type="curve" smooth="yes"/>
      <point x="141" y="34"/>
      <point x="144" y="60"/>
      <point x="152" y="83" type="curve" smooth="yes"/>
      <point x="158" y="100"/>
      <point x="173" y="108"/>
      <point x="190" y="101" type="curve" smooth="yes"/>
      <point x="399" y="21"/>
      <point x="457" y="-1"/>
      <point x="506" y="-1" type="curve" smooth="yes"/>
      <point x="542" y="-1"/>
      <point x="563" y="16"/>
      <point x="563" y="51" type="curve" smooth="yes"/>
      <point x="563" y="80"/>
      <point x="552" y="110"/>
      <point x="382" y="216" type="curve"/>
      <point x="363" y="166"/>
      <point x="348" y="143"/>
      <point x="326" y="143" type="curve" smooth="yes"/>
      <point x="286" y="143"/>
      <point x="297" y="189"/>
      <point x="331" y="251" type="curve"/>
      <point x="316" y="262"/>
      <point x="301" y="272"/>
      <point x="286" y="280" type="curve"/>
      <point x="262" y="234"/>
      <point x="246" y="207"/>
      <point x="222" y="207" type="curve" smooth="yes"/>
      <point x="187" y="207"/>
      <point x="195" y="248"/>
      <point x="230" y="316" type="curve"/>
      <point x="217" y="323"/>
      <point x="206" y="330"/>
      <point x="196" y="338" type="curve" smooth="yes"/>
      <point x="169" y="359"/>
      <point x="162" y="364"/>
      <point x="156" y="452" type="curve" smooth="yes"/>
      <point x="148" y="565"/>
      <point x="199" y="647"/>
      <point x="333" y="647" type="curve" smooth="yes"/>
      <point x="435" y="647"/>
      <point x="493" y="592"/>
      <point x="493" y="517" type="curve" smooth="yes"/>
      <point x="493" y="447"/>
      <point x="447" y="406"/>
      <point x="379" y="406" type="curve" smooth="yes"/>
      <point x="331" y="406"/>
      <point x="298" y="433"/>
      <point x="298" y="471" type="curve" smooth="yes"/>
      <point x="298" y="499"/>
      <point x="312" y="512"/>
      <point x="333" y="512" type="curve" smooth="yes"/>
      <point x="372" y="512"/>
      <point x="356" y="470"/>
      <point x="398" y="470" type="curve" smooth="yes"/>
      <point x="415" y="470"/>
      <point x="433" y="484"/>
      <point x="433" y="504" type="curve" smooth="yes"/>
      <point x="433" y="548"/>
      <point x="390" y="576"/>
      <point x="340" y="576" type="curve" smooth="yes"/>
      <point x="268" y="576"/>
      <point x="223" y="527"/>
      <point x="223" y="465" type="curve" smooth="yes"/>
      <point x="223" y="388"/>
      <point x="291" y="340"/>
      <point x="374" y="340" type="curve" smooth="yes"/>
      <point x="488" y="340"/>
      <point x="568" y="407"/>
      <point x="568" y="520" type="curve" smooth="yes"/>
      <point x="568" y="654"/>
      <point x="464" y="723"/>
      <point x="338" y="723" type="curve" smooth="yes"/>
      <point x="262" y="723"/>
      <point x="201" y="704"/>
      <point x="157" y="667" type="curve" smooth="yes"/>
      <point x="148" y="659"/>
      <point x="139" y="651"/>
      <point x="131" y="641" type="curve" smooth="yes"/>
      <point x="123" y="632"/>
      <point x="117" y="623"/>
      <point x="111" y="613" type="curve" smooth="yes"/>
      <point x="102" y="597"/>
      <point x="94" y="579"/>
      <point x="88" y="560" type="curve" smooth="yes"/>
      <point x="85" y="552"/>
      <point x="83" y="543"/>
      <point x="80" y="533" type="curve" smooth="yes"/>
      <point x="78" y="523"/>
      <point x="76" y="512"/>
      <point x="74" y="500" type="curve" smooth="yes"/>
      <point x="73" y="486"/>
      <point x="71" y="472"/>
      <point x="71" y="457" type="curve" smooth="yes"/>
      <point x="66" y="314"/>
      <point x="63" y="171"/>
    </contour>
    <contour>
      <point x="99" y="112" type="curve"/>
      <point x="97" y="172" type="line"/>
      <point x="84" y="173"/>
      <point x="76" y="157"/>
      <point x="76" y="142" type="curve" smooth="yes"/>
      <point x="76" y="127"/>
      <point x="83" y="112"/>
    </contour>
    <contour>
      <point x="92" y="214" type="curve"/>
      <point x="97" y="273" type="line"/>
      <point x="80" y="275"/>
      <point x="72" y="260"/>
      <point x="72" y="244" type="curve" smooth="yes"/>
      <point x="72" y="230"/>
      <point x="79" y="215"/>
    </contour>
    <contour>
      <point x="498" y="215" type="curve" smooth="yes"/>
      <point x="527" y="215"/>
      <point x="550" y="238"/>
      <point x="550" y="267" type="curve" smooth="yes"/>
      <point x="550" y="296"/>
      <point x="527" y="319"/>
      <point x="498" y="319" type="curve" smooth="yes"/>
      <point x="469" y="319"/>
      <point x="446" y="296"/>
      <point x="446" y="267" type="curve" smooth="yes"/>
      <point x="446" y="238"/>
      <point x="469" y="215"/>
    </contour>
  </outline>
</glyph>
<glyph name="T" format="2">
  <advance width="470"/>
  <unicode hex="0054"/>
  <unicode hex="0074"/>
  <anchor x="223" y="29" name="bottom"/>
  <anchor x="205" y="30" name="cedilla"/>
  <anchor x="242" y="696" name="top"/>
  <outline>
    <contour>
      <point x="215" y="19"/>
      <point x="224" y="16"/>
      <point x="233" y="16" type="curve" smooth="yes"/>
      <point x="242" y="16"/>
      <point x="251" y="19"/>
      <point x="257" y="25" type="curve" smooth="yes"/>
      <point x="279" y="47"/>
      <point x="283" y="113"/>
      <point x="333" y="588" type="curve" smooth="yes"/>
      <point x="340" y="654"/>
      <point x="472" y="603"/>
      <point x="472" y="665" type="curve" smooth="yes"/>
      <point x="472" y="699"/>
      <point x="450" y="705"/>
      <point x="288" y="700" type="curve"/>
      <point x="288" y="700"/>
      <point x="264" y="700"/>
      <point x="238" y="699" type="curve" smooth="yes"/>
      <point x="210" y="698"/>
      <point x="207" y="698"/>
      <point x="207" y="698" type="curve"/>
      <point x="194" y="698"/>
      <point x="182" y="697"/>
      <point x="169" y="697" type="curve"/>
      <point x="169" y="697"/>
      <point x="166" y="697"/>
      <point x="139" y="696" type="curve" smooth="yes"/>
      <point x="100" y="695"/>
      <point x="96" y="694"/>
      <point x="96" y="694" type="curve"/>
      <point x="14" y="691"/>
      <point x="1" y="678"/>
      <point x="1" y="648" type="curve" smooth="yes"/>
      <point x="1" y="584"/>
      <point x="119" y="639"/>
      <point x="125" y="586" type="curve" smooth="yes"/>
      <point x="127" y="568"/>
      <point x="130" y="546"/>
      <point x="133" y="522" type="curve"/>
      <point x="241" y="516"/>
      <point x="260" y="506"/>
      <point x="260" y="482" type="curve" smooth="yes"/>
      <point x="260" y="458"/>
      <point x="233" y="446"/>
      <point x="139" y="454" type="curve"/>
      <point x="141" y="434"/>
      <point x="144" y="410"/>
      <point x="146" y="390" type="curve"/>
      <point x="226" y="393"/>
      <point x="242" y="381"/>
      <point x="242" y="360" type="curve" smooth="yes"/>
      <point x="242" y="341"/>
      <point x="228" y="325"/>
      <point x="155" y="321" type="curve"/>
      <point x="185" y="87"/>
      <point x="195" y="39"/>
      <point x="209" y="25" type="curve" smooth="yes"/>
    </contour>
    <contour>
      <point x="395" y="640" type="curve" smooth="yes"/>
      <point x="410" y="640"/>
      <point x="422" y="652"/>
      <point x="422" y="667" type="curve" smooth="yes"/>
      <point x="422" y="681"/>
      <point x="410" y="694"/>
      <point x="395" y="694" type="curve" smooth="yes"/>
      <point x="381" y="694"/>
      <point x="368" y="681"/>
      <point x="368" y="667" type="curve" smooth="yes"/>
      <point x="368" y="652"/>
      <point x="381" y="640"/>
    </contour>
    <contour>
      <point x="220" y="132" type="line"/>
      <point x="253" y="133"/>
      <point x="270" y="136"/>
      <point x="270" y="166" type="curve" smooth="yes"/>
      <point x="270" y="202"/>
      <point x="260" y="206"/>
      <point x="217" y="208" type="curve"/>
    </contour>
    <contour>
      <point x="258" y="611" type="line"/>
      <point x="211" y="612"/>
      <point x="194" y="605"/>
      <point x="193" y="577" type="curve" smooth="yes"/>
      <point x="192" y="547"/>
      <point x="206" y="547"/>
      <point x="254" y="543" type="curve"/>
    </contour>
  </outline>
</glyph>
<glyph name="V" format="2">
  <advance width="616"/>
  <unicode hex="0056"/>
  <unicode hex="0076"/>
  <anchor x="322" y="0" name="bottom"/>
  <anchor x="364" y="700" name="top"/>
  <outline>
    <contour>
      <point x="40" y="637" type="curve" smooth="yes"/>
      <point x="62" y="521"/>
      <point x="86" y="405"/>
      <point x="113" y="288" type="curve"/>
      <point x="171" y="305"/>
      <point x="215" y="315"/>
      <point x="215" y="271" type="curve" smooth="yes"/>
      <point x="215" y="247"/>
      <point x="192" y="236"/>
      <point x="127" y="225" type="curve"/>
      <point x="130" y="208"/>
      <point x="134" y="189"/>
      <point x="139" y="173" type="curve"/>
      <point x="227" y="196"/>
      <point x="258" y="183"/>
      <point x="258" y="156" type="curve" smooth="yes"/>
      <point x="258" y="131"/>
      <point x="237" y="115"/>
      <point x="154" y="106" type="curve"/>
      <point x="155" y="101"/>
      <point x="156" y="95"/>
      <point x="157" y="90" type="curve" smooth="yes"/>
      <point x="175" y="16"/>
      <point x="215" y="-29"/>
      <point x="291" y="-29" type="curve" smooth="yes"/>
      <point x="349" y="-29"/>
      <point x="403" y="-9"/>
      <point x="434" y="88" type="curve" smooth="yes"/>
      <point x="437" y="97"/>
      <point x="440" y="106"/>
      <point x="443" y="115" type="curve" smooth="yes"/>
      <point x="447" y="127"/>
      <point x="450" y="138"/>
      <point x="454" y="150" type="curve" smooth="yes"/>
      <point x="458" y="161"/>
      <point x="462" y="173"/>
      <point x="465" y="184" type="curve" smooth="yes"/>
      <point x="469" y="195"/>
      <point x="472" y="207"/>
      <point x="476" y="218" type="curve" smooth="yes"/>
      <point x="479" y="228"/>
      <point x="482" y="239"/>
      <point x="485" y="249" type="curve" smooth="yes"/>
      <point x="489" y="261"/>
      <point x="492" y="272"/>
      <point x="496" y="284" type="curve" smooth="yes"/>
      <point x="529" y="394"/>
      <point x="561" y="505"/>
      <point x="591" y="615" type="curve" smooth="yes"/>
      <point x="603" y="658"/>
      <point x="594" y="690"/>
      <point x="554" y="690" type="curve" smooth="yes"/>
      <point x="532" y="690"/>
      <point x="515" y="672"/>
      <point x="504" y="636" type="curve" smooth="yes"/>
      <point x="463" y="500"/>
      <point x="428" y="363"/>
      <point x="387" y="227" type="curve" smooth="yes"/>
      <point x="373" y="181"/>
      <point x="357" y="170"/>
      <point x="336" y="170" type="curve" smooth="yes"/>
      <point x="316" y="170"/>
      <point x="305" y="186"/>
      <point x="291" y="222" type="curve" smooth="yes"/>
      <point x="236" y="364"/>
      <point x="189" y="519"/>
      <point x="134" y="663" type="curve" smooth="yes"/>
      <point x="120" y="699"/>
      <point x="104" y="719"/>
      <point x="80" y="719" type="curve" smooth="yes"/>
      <point x="43" y="719"/>
      <point x="31" y="689"/>
    </contour>
    <contour>
      <point x="291" y="582" type="curve" smooth="yes"/>
      <point x="325" y="582"/>
      <point x="353" y="610"/>
      <point x="353" y="645" type="curve" smooth="yes"/>
      <point x="353" y="679"/>
      <point x="325" y="707"/>
      <point x="291" y="707" type="curve" smooth="yes"/>
      <point x="256" y="707"/>
      <point x="228" y="679"/>
      <point x="228" y="645" type="curve" smooth="yes"/>
      <point x="228" y="610"/>
      <point x="256" y="582"/>
    </contour>
    <contour>
      <point x="554" y="500" type="curve" smooth="yes"/>
      <point x="515" y="510"/>
      <point x="470" y="520"/>
      <point x="430" y="527" type="curve" smooth="yes"/>
      <point x="358" y="540"/>
      <point x="337" y="537"/>
      <point x="332" y="513" type="curve" smooth="yes"/>
      <point x="326" y="486"/>
      <point x="348" y="472"/>
      <point x="412" y="456" type="curve" smooth="yes"/>
      <point x="453" y="445"/>
      <point x="494" y="435"/>
      <point x="537" y="426" type="curve" smooth="yes"/>
      <point x="600" y="413"/>
      <point x="624" y="414"/>
      <point x="631" y="443" type="curve" smooth="yes"/>
      <point x="636" y="465"/>
      <point x="617" y="485"/>
    </contour>
    <contour>
      <point x="164" y="439" type="curve" smooth="yes"/>
      <point x="153" y="435"/>
      <point x="141" y="431"/>
      <point x="130" y="427" type="curve" smooth="yes"/>
      <point x="115" y="422"/>
      <point x="112" y="405"/>
      <point x="116" y="391" type="curve" smooth="yes"/>
      <point x="119" y="377"/>
      <point x="130" y="365"/>
      <point x="142" y="369" type="curve" smooth="yes"/>
      <point x="154" y="373"/>
      <point x="166" y="376"/>
      <point x="178" y="380" type="curve" smooth="yes"/>
      <point x="194" y="385"/>
      <point x="199" y="402"/>
      <point x="195" y="417" type="curve" smooth="yes"/>
      <point x="192" y="432"/>
      <point x="180" y="445"/>
    </contour>
    <contour>
      <point x="88" y="642" type="curve" smooth="yes"/>
      <point x="84" y="642"/>
      <point x="79" y="642"/>
      <point x="75" y="642" type="curve" smooth="yes"/>
      <point x="61" y="641"/>
      <point x="56" y="628"/>
      <point x="58" y="615" type="curve" smooth="yes"/>
      <point x="59" y="603"/>
      <point x="66" y="591"/>
      <point x="76" y="592" type="curve" smooth="yes"/>
      <point x="80" y="592"/>
      <point x="84" y="592"/>
      <point x="88" y="592" type="curve" smooth="yes"/>
      <point x="102" y="593"/>
      <point x="107" y="608"/>
      <point x="106" y="621" type="curve" smooth="yes"/>
      <point x="105" y="633"/>
      <point x="99" y="643"/>
    </contour>
  </outline>
</glyph>
<glyph name="X" format="2">
  <advance width="576"/>
  <unicode hex="0058"/>
  <unicode hex="0078"/>
  <anchor x="289" y="-8" name="bottom"/>
  <anchor x="349" y="707" name="top"/>
  <outline>
    <contour>
      <point x="47" y="-19" type="curve" smooth="yes"/>
      <point x="72" y="-30"/>
      <point x="99" y="-17"/>
      <point x="122" y="22" type="curve" smooth="yes"/>
      <point x="155" y="79"/>
      <point x="181" y="136"/>
      <point x="214" y="193" type="curve" smooth="yes"/>
      <point x="253" y="260"/>
      <point x="268" y="273"/>
      <point x="294" y="273" type="curve" smooth="yes"/>
      <point x="312" y="273"/>
      <point x="330" y="265"/>
      <point x="357" y="219" type="curve" smooth="yes"/>
      <point x="392" y="159"/>
      <point x="419" y="97"/>
      <point x="454" y="37" type="curve" smooth="yes"/>
      <point x="476" y="0"/>
      <point x="501" y="-13"/>
      <point x="527" y="-2" type="curve" smooth="yes"/>
      <point x="556" y="11"/>
      <point x="557" y="42"/>
      <point x="539" y="82" type="curve" smooth="yes"/>
      <point x="516" y="133"/>
      <point x="485" y="177"/>
      <point x="462" y="228" type="curve" smooth="yes"/>
      <point x="439" y="278"/>
      <point x="431" y="300"/>
      <point x="431" y="323" type="curve" smooth="yes"/>
      <point x="431" y="342"/>
      <point x="434" y="358"/>
      <point x="444" y="386" type="curve" smooth="yes"/>
      <point x="473" y="464"/>
      <point x="504" y="536"/>
      <point x="535" y="621" type="curve" smooth="yes"/>
      <point x="550" y="662"/>
      <point x="545" y="690"/>
      <point x="513" y="698" type="curve" smooth="yes"/>
      <point x="483" y="706"/>
      <point x="466" y="690"/>
      <point x="451" y="652" type="curve" smooth="yes"/>
      <point x="427" y="593"/>
      <point x="408" y="532"/>
      <point x="383" y="473" type="curve" smooth="yes"/>
      <point x="368" y="438"/>
      <point x="353" y="423"/>
      <point x="335" y="423" type="curve" smooth="yes"/>
      <point x="321" y="423"/>
      <point x="309" y="427"/>
      <point x="293" y="451" type="curve" smooth="yes"/>
      <point x="289" y="457"/>
      <point x="285" y="464"/>
      <point x="281" y="470" type="curve"/>
      <point x="212" y="432"/>
      <point x="181" y="422"/>
      <point x="168" y="447" type="curve" smooth="yes"/>
      <point x="157" y="469"/>
      <point x="173" y="489"/>
      <point x="249" y="523" type="curve"/>
      <point x="239" y="542"/>
      <point x="231" y="556"/>
      <point x="220" y="572" type="curve"/>
      <point x="155" y="537"/>
      <point x="124" y="536"/>
      <point x="117" y="559" type="curve" smooth="yes"/>
      <point x="111" y="580"/>
      <point x="130" y="597"/>
      <point x="192" y="620" type="curve"/>
      <point x="184" y="634"/>
      <point x="175" y="649"/>
      <point x="167" y="661" type="curve" smooth="yes"/>
      <point x="128" y="720"/>
      <point x="93" y="734"/>
      <point x="60" y="716" type="curve" smooth="yes"/>
      <point x="29" y="699"/>
      <point x="29" y="660"/>
      <point x="50" y="602" type="curve" smooth="yes"/>
      <point x="73" y="538"/>
      <point x="103" y="473"/>
      <point x="127" y="409" type="curve" smooth="yes"/>
      <point x="142" y="367"/>
      <point x="146" y="344"/>
      <point x="146" y="318" type="curve" smooth="yes"/>
      <point x="146" y="294"/>
      <point x="140" y="271"/>
      <point x="130" y="248" type="curve" smooth="yes"/>
      <point x="102" y="185"/>
      <point x="68" y="126"/>
      <point x="40" y="63" type="curve" smooth="yes"/>
      <point x="22" y="23"/>
      <point x="23" y="-8"/>
    </contour>
    <contour>
      <point x="499" y="496" type="curve" smooth="yes"/>
      <point x="539" y="487"/>
      <point x="572" y="483"/>
      <point x="577" y="511" type="curve" smooth="yes"/>
      <point x="583" y="539"/>
      <point x="563" y="553"/>
      <point x="520" y="565" type="curve" smooth="yes"/>
      <point x="481" y="576"/>
      <point x="441" y="585"/>
      <point x="402" y="593" type="curve" smooth="yes"/>
      <point x="349" y="604"/>
      <point x="324" y="603"/>
      <point x="318" y="579" type="curve" smooth="yes"/>
      <point x="312" y="556"/>
      <point x="326" y="543"/>
      <point x="380" y="527" type="curve" smooth="yes"/>
      <point x="417" y="516"/>
      <point x="460" y="505"/>
    </contour>
    <contour>
      <point x="402" y="422" type="line"/>
      <point x="422" y="414"/>
      <point x="435" y="417"/>
      <point x="443" y="439" type="curve" smooth="yes"/>
      <point x="452" y="463"/>
      <point x="447" y="475"/>
      <point x="426" y="484" type="curve"/>
    </contour>
    <contour>
      <point x="296" y="49" type="curve" smooth="yes"/>
      <point x="325" y="49"/>
      <point x="349" y="73"/>
      <point x="349" y="104" type="curve" smooth="yes"/>
      <point x="349" y="133"/>
      <point x="325" y="157"/>
      <point x="296" y="157" type="curve" smooth="yes"/>
      <point x="265" y="157"/>
      <point x="241" y="133"/>
      <point x="241" y="104" type="curve" smooth="yes"/>
      <point x="241" y="73"/>
      <point x="265" y="49"/>
    </contour>
    <contour>
      <point x="109" y="75" type="curve" smooth="yes"/>
      <point x="123" y="69"/>
      <point x="136" y="79"/>
      <point x="142" y="92" type="curve" smooth="yes"/>
      <point x="149" y="107"/>
      <point x="147" y="127"/>
      <point x="129" y="133" type="curve" smooth="yes"/>
      <point x="126" y="134"/>
      <point x="123" y="135"/>
      <point x="120" y="136" type="curve" smooth="yes"/>
      <point x="103" y="142"/>
      <point x="89" y="130"/>
      <point x="84" y="115" type="curve" smooth="yes"/>
      <point x="80" y="101"/>
      <point x="83" y="85"/>
      <point x="99" y="79" type="curve" smooth="yes"/>
      <point x="102" y="78"/>
      <point x="106" y="76"/>
    </contour>
    <contour>
      <point x="373" y="311" type="curve" smooth="yes"/>
      <point x="373" y="311"/>
      <point x="373" y="311"/>
      <point x="373" y="311" type="curve" smooth="yes"/>
      <point x="373" y="311"/>
      <point x="373" y="311"/>
      <point x="373" y="311" type="curve" smooth="yes"/>
      <point x="373" y="311"/>
      <point x="373" y="311"/>
      <point x="373" y="311" type="curve" smooth="yes"/>
      <point x="373" y="311"/>
      <point x="373" y="311"/>
    </contour>
    <contour>
      <point x="313" y="371" type="curve" smooth="yes"/>
      <point x="313" y="371"/>
      <point x="313" y="371"/>
      <point x="313" y="371" type="curve" smooth="yes"/>
      <point x="313" y="371"/>
      <point x="313" y="371"/>
      <point x="313" y="371" type="curve" smooth="yes"/>
      <point x="313" y="371"/>
      <point x="313" y="371"/>
      <point x="313" y="371" type="curve" smooth="yes"/>
      <point x="313" y="371"/>
      <point x="313" y="371"/>
    </contour>
    <contour>
      <point x="76" y="29" type="curve" smooth="yes"/>
      <point x="84" y="27"/>
      <point x="91" y="33"/>
      <point x="94" y="41" type="curve" smooth="yes"/>
      <point x="97" y="50"/>
      <point x="94" y="60"/>
      <point x="85" y="63" type="curve" smooth="yes"/>
      <point x="83" y="64"/>
      <point x="78" y="66"/>
      <point x="76" y="67" type="curve" smooth="yes"/>
      <point x="67" y="70"/>
      <point x="58" y="62"/>
      <point x="55" y="54" type="curve" smooth="yes"/>
      <point x="52" y="45"/>
      <point x="55" y="35"/>
      <point x="66" y="32" type="curve" smooth="yes"/>
      <point x="69" y="31"/>
      <point x="73" y="30"/>
    </contour>
  </outline>
</glyph>
<glyph name="bracketright" format="2">
  <advance width="357"/>
  <unicode hex="005D"/>
  <outline>
    <contour>
      <point x="65" y="-193" type="curve" smooth="yes"/>
      <point x="102" y="-194"/>
      <point x="135" y="-193"/>
      <point x="168" y="-189" type="curve" smooth="yes"/>
      <point x="212" y="-184"/>
      <point x="228" y="-161"/>
      <point x="232" y="-114" type="curve" smooth="yes"/>
      <point x="255" y="157"/>
      <point x="273" y="445"/>
      <point x="286" y="710" type="curve" smooth="yes"/>
      <point x="289" y="769"/>
      <point x="266" y="791"/>
      <point x="211" y="797" type="curve" smooth="yes"/>
      <point x="170" y="801"/>
      <point x="94" y="806"/>
      <point x="51" y="807" type="curve" smooth="yes"/>
      <point x="13" y="808"/>
      <point x="1" y="790"/>
      <point x="1" y="764" type="curve" smooth="yes"/>
      <point x="1" y="740"/>
      <point x="12" y="729"/>
      <point x="45" y="722" type="curve" smooth="yes"/>
      <point x="69" y="717"/>
      <point x="88" y="713"/>
      <point x="109" y="710" type="curve" smooth="yes"/>
      <point x="136" y="707"/>
      <point x="151" y="697"/>
      <point x="151" y="643" type="curve" smooth="yes"/>
      <point x="150" y="438"/>
      <point x="152" y="191"/>
      <point x="155" y="-31" type="curve" smooth="yes"/>
      <point x="156" y="-85"/>
      <point x="146" y="-102"/>
      <point x="113" y="-99" type="curve" smooth="yes"/>
      <point x="99" y="-97"/>
      <point x="82" y="-95"/>
      <point x="64" y="-94" type="curve" smooth="yes"/>
      <point x="14" y="-90"/>
      <point x="-13" y="-104"/>
      <point x="-13" y="-135" type="curve" smooth="yes"/>
      <point x="-13" y="-177"/>
      <point x="12" y="-192"/>
    </contour>
  </outline>
</glyph>
<glyph name="asciicircum" format="2">
  <advance width="522"/>
  <unicode hex="005E"/>
  <outline>
    <contour>
      <point x="57" y="473" type="curve" smooth="yes"/>
      <point x="43" y="446"/>
      <point x="51" y="419"/>
      <point x="66" y="408" type="curve" smooth="yes"/>
      <point x="82" y="396"/>
      <point x="106" y="393"/>
      <point x="137" y="428" type="curve" smooth="yes"/>
      <point x="174" y="470"/>
      <point x="220" y="530"/>
      <point x="255" y="568" type="curve" smooth="yes"/>
      <point x="272" y="586"/>
      <point x="289" y="584"/>
      <point x="306" y="560" type="curve" smooth="yes"/>
      <point x="326" y="532"/>
      <point x="357" y="476"/>
      <point x="386" y="431" type="curve" smooth="yes"/>
      <point x="410" y="393"/>
      <point x="436" y="386"/>
      <point x="458" y="398" type="curve" smooth="yes"/>
      <point x="477" y="407"/>
      <point x="489" y="432"/>
      <point x="464" y="476" type="curve" smooth="yes"/>
      <point x="429" y="537"/>
      <point x="374" y="629"/>
      <point x="340" y="683" type="curve" smooth="yes"/>
      <point x="315" y="721"/>
      <point x="290" y="742"/>
      <point x="253" y="742" type="curve" smooth="yes"/>
      <point x="218" y="742"/>
      <point x="186" y="717"/>
      <point x="160" y="670" type="curve" smooth="yes"/>
      <point x="129" y="614"/>
      <point x="91" y="540"/>
    </contour>
  </outline>
</glyph>
<glyph name="underscore" format="2">
  <advance width="520"/>
  <unicode hex="005F"/>
  <outline>
    <contour>
      <point x="77" y="-52" type="curve" smooth="yes"/>
      <point x="43" y="-56"/>
      <point x="25" y="-66"/>
      <point x="25" y="-93" type="curve" smooth="yes"/>
      <point x="25" y="-121"/>
      <point x="45" y="-135"/>
      <point x="85" y="-135" type="curve" smooth="yes"/>
      <point x="192" y="-134"/>
      <point x="321" y="-130"/>
      <point x="428" y="-124" type="curve" smooth="yes"/>
      <point x="468" y="-122"/>
      <point x="488" y="-107"/>
      <point x="488" y="-72" type="curve" smooth="yes"/>
      <point x="488" y="-37"/>
      <point x="467" y="-23"/>
      <point x="423" y="-25" type="curve" smooth="yes"/>
      <point x="325" y="-30"/>
      <point x="188" y="-41"/>
    </contour>
  </outline>
</glyph>
<glyph name="bar" format="2">
  <advance width="225"/>
  <unicode hex="007C"/>
  <outline>
    <contour>
      <point x="74" y="741" type="curve" smooth="yes"/>
      <point x="64" y="478"/>
      <point x="55" y="200"/>
      <point x="49" y="-57" type="curve" smooth="yes"/>
      <point x="48" y="-108"/>
      <point x="68" y="-132"/>
      <point x="108" y="-132" type="curve" smooth="yes"/>
      <point x="145" y="-132"/>
      <point x="164" y="-110"/>
      <point x="164" y="-58" type="curve" smooth="yes"/>
      <point x="166" y="199"/>
      <point x="166" y="475"/>
      <point x="162" y="736" type="curve" smooth="yes"/>
      <point x="161" y="782"/>
      <point x="154" y="813"/>
      <point x="120" y="813" type="curve" smooth="yes"/>
      <point x="88" y="813"/>
      <point x="76" y="787"/>
    </contour>
  </outline>
</glyph>
<glyph name="guillemetleft" format="2">
  <advance width="493"/>
  <unicode hex="00AB"/>
  <outline>
    <contour>
      <point x="180" y="44" type="curve" smooth="yes"/>
      <point x="207" y="-1"/>
      <point x="273" y="28"/>
      <point x="254" y="70" type="curve" smooth="yes"/>
      <point x="223" y="141"/>
      <point x="182" y="230"/>
      <point x="160" y="279" type="curve" smooth="yes"/>
      <point x="152" y="297"/>
      <point x="150" y="314"/>
      <point x="160" y="331" type="curve" smooth="yes"/>
      <point x="188" y="380"/>
      <point x="224" y="446"/>
      <point x="251" y="497" type="curve" smooth="yes"/>
      <point x="282" y="556"/>
      <point x="204" y="593"/>
      <point x="172" y="543" type="curve" smooth="yes"/>
      <point x="139" y="490"/>
      <point x="104" y="432"/>
      <point x="74" y="371" type="curve" smooth="yes"/>
      <point x="59" y="341"/>
      <point x="53" y="297"/>
      <point x="73" y="253" type="curve" smooth="yes"/>
      <point x="99" y="196"/>
      <point x="143" y="110"/>
    </contour>
    <contour>
      <point x="350" y="84" type="curve" smooth="yes"/>
      <point x="389" y="25"/>
      <point x="472" y="78"/>
      <point x="437" y="132" type="curve" smooth="yes"/>
      <point x="407" y="177"/>
      <point x="370" y="228"/>
      <point x="340" y="269" type="curve" smooth="yes"/>
      <point x="325" y="289"/>
      <point x="327" y="308"/>
      <point x="341" y="328" type="curve" smooth="yes"/>
      <point x="378" y="380"/>
      <point x="424" y="446"/>
      <point x="455" y="492" type="curve" smooth="yes"/>
      <point x="488" y="542"/>
      <point x="438" y="571"/>
      <point x="401" y="533" type="curve" smooth="yes"/>
      <point x="361" y="491"/>
      <point x="290" y="406"/>
      <point x="248" y="353" type="curve" smooth="yes"/>
      <point x="229" y="329"/>
      <point x="226" y="297"/>
      <point x="247" y="259" type="curve" smooth="yes"/>
      <point x="283" y="194"/>
      <point x="320" y="130"/>
    </contour>
  </outline>
</glyph>
<glyph name="periodcentered" format="2">
  <advance width="276"/>
  <unicode hex="00B7"/>
  <outline>
    <contour>
      <point x="132" y="255" type="curve" smooth="yes"/>
      <point x="187" y="255"/>
      <point x="233" y="290"/>
      <point x="233" y="332" type="curve" smooth="yes"/>
      <point x="233" y="383"/>
      <point x="198" y="423"/>
      <point x="142" y="423" type="curve" smooth="yes"/>
      <point x="91" y="423"/>
      <point x="48" y="384"/>
      <point x="48" y="339" type="curve" smooth="yes"/>
      <point x="48" y="288"/>
      <point x="82" y="255"/>
    </contour>
  </outline>
</glyph>
<glyph name="endash" format="2">
  <advance width="381"/>
  <unicode hex="2013"/>
  <outline>
    <contour>
      <point x="111" y="359" type="curve" smooth="yes"/>
      <point x="74" y="360"/>
      <point x="41" y="351"/>
      <point x="41" y="310" type="curve" smooth="yes"/>
      <point x="41" y="283"/>
      <point x="56" y="268"/>
      <point x="94" y="265" type="curve" smooth="yes"/>
      <point x="154" y="259"/>
      <point x="222" y="257"/>
      <point x="284" y="255" type="curve" smooth="yes"/>
      <point x="319" y="255"/>
      <point x="341" y="265"/>
      <point x="341" y="302" type="curve" smooth="yes"/>
      <point x="341" y="333"/>
      <point x="324" y="348"/>
      <point x="292" y="351" type="curve" smooth="yes"/>
      <point x="235" y="356"/>
      <point x="172" y="357"/>
    </contour>
  </outline>
</glyph>
<glyph name="quotedblleft" format="2">
  <advance width="509"/>
  <unicode hex="201C"/>
  <outline>
    <contour>
      <point x="232" y="659" type="curve" smooth="yes"/>
      <point x="276" y="685"/>
      <point x="243" y="746"/>
      <point x="194" y="722" type="curve" smooth="yes"/>
      <point x="103" y="677"/>
      <point x="37" y="595"/>
      <point x="37" y="442" type="curve" smooth="yes"/>
      <point x="37" y="348"/>
      <point x="70" y="304"/>
      <point x="145" y="304" type="curve" smooth="yes"/>
      <point x="206" y="304"/>
      <point x="243" y="336"/>
      <point x="243" y="396" type="curve" smooth="yes"/>
      <point x="243" y="501"/>
      <point x="140" y="473"/>
      <point x="140" y="527" type="curve" smooth="yes"/>
      <point x="140" y="579"/>
      <point x="176" y="626"/>
    </contour>
    <contour>
      <point x="142" y="437" type="curve" smooth="yes"/>
      <point x="165" y="437"/>
      <point x="184" y="418"/>
      <point x="184" y="395" type="curve" smooth="yes"/>
      <point x="184" y="372"/>
      <point x="165" y="353"/>
      <point x="142" y="353" type="curve" smooth="yes"/>
      <point x="119" y="353"/>
      <point x="100" y="372"/>
      <point x="100" y="395" type="curve" smooth="yes"/>
      <point x="100" y="418"/>
      <point x="119" y="437"/>
    </contour>
    <contour>
      <point x="98" y="532" type="curve" smooth="yes"/>
      <point x="108" y="526"/>
      <point x="117" y="528"/>
      <point x="129" y="549" type="curve" smooth="yes"/>
      <point x="139" y="567"/>
      <point x="137" y="579"/>
      <point x="132" y="583" type="curve" smooth="yes"/>
      <point x="128" y="586"/>
      <point x="128" y="586"/>
      <point x="122" y="589" type="curve" smooth="yes"/>
      <point x="112" y="594"/>
      <point x="101" y="595"/>
      <point x="90" y="575" type="curve" smooth="yes"/>
      <point x="79" y="554"/>
      <point x="81" y="546"/>
      <point x="89" y="539" type="curve" smooth="yes"/>
      <point x="93" y="536"/>
      <point x="94" y="535"/>
    </contour>
    <contour>
      <point x="463" y="625" type="curve" smooth="yes"/>
      <point x="507" y="656"/>
      <point x="465" y="712"/>
      <point x="422" y="687" type="curve" smooth="yes"/>
      <point x="348" y="644"/>
      <point x="284" y="546"/>
      <point x="284" y="406" type="curve" smooth="yes"/>
      <point x="284" y="345"/>
      <point x="311" y="293"/>
      <point x="386" y="293" type="curve" smooth="yes"/>
      <point x="440" y="293"/>
      <point x="471" y="327"/>
      <point x="471" y="371" type="curve" smooth="yes"/>
      <point x="471" y="460"/>
      <point x="378" y="424"/>
      <point x="378" y="482" type="curve" smooth="yes"/>
      <point x="378" y="534"/>
      <point x="411" y="589"/>
    </contour>
    <contour>
      <point x="391" y="370" type="curve" smooth="yes"/>
      <point x="391" y="370"/>
      <point x="391" y="370"/>
      <point x="391" y="370" type="curve" smooth="yes"/>
      <point x="391" y="370"/>
      <point x="391" y="370"/>
      <point x="391" y="370" type="curve" smooth="yes"/>
      <point x="391" y="370"/>
      <point x="391" y="370"/>
      <point x="391" y="370" type="curve" smooth="yes"/>
      <point x="391" y="370"/>
      <point x="391" y="370"/>
    </contour>
    <contour>
      <point x="393" y="507" type="curve" smooth="yes"/>
      <point x="446" y="489"/>
      <point x="470" y="491"/>
      <point x="476" y="512" type="curve" smooth="yes"/>
      <point x="482" y="534"/>
      <point x="470" y="548"/>
      <point x="415" y="568" type="curve" smooth="yes"/>
      <point x="382" y="581"/>
      <point x="344" y="592"/>
      <point x="327" y="597" type="curve" smooth="yes"/>
      <point x="273" y="613"/>
      <point x="252" y="612"/>
      <point x="246" y="591" type="curve" smooth="yes"/>
      <point x="240" y="570"/>
      <point x="248" y="553"/>
      <point x="302" y="536" type="curve" smooth="yes"/>
      <point x="324" y="529"/>
      <point x="354" y="519"/>
    </contour>
  </outline>
</glyph>
<glyph name="quotedblright" format="2">
  <advance width="509"/>
  <unicode hex="201D"/>
  <outline>
    <contour>
      <point x="283" y="373" type="curve" smooth="yes"/>
      <point x="239" y="342"/>
      <point x="281" y="286"/>
      <point x="324" y="311" type="curve" smooth="yes"/>
      <point x="400" y="355"/>
      <point x="466" y="452"/>
      <point x="466" y="592" type="curve" smooth="yes"/>
      <point x="466" y="653"/>
      <point x="438" y="705"/>
      <point x="360" y="705" type="curve" smooth="yes"/>
      <point x="306" y="705"/>
      <point x="275" y="673"/>
      <point x="275" y="629" type="curve" smooth="yes"/>
      <point x="275" y="537"/>
      <point x="368" y="569"/>
      <point x="368" y="515" type="curve" smooth="yes"/>
      <point x="368" y="463"/>
      <point x="335" y="409"/>
    </contour>
    <contour>
      <point x="355" y="628" type="curve" smooth="yes"/>
      <point x="355" y="628"/>
      <point x="355" y="628"/>
      <point x="355" y="628" type="curve" smooth="yes"/>
      <point x="355" y="628"/>
      <point x="355" y="628"/>
      <point x="355" y="628" type="curve" smooth="yes"/>
      <point x="355" y="628"/>
      <point x="355" y="628"/>
      <point x="355" y="628" type="curve" smooth="yes"/>
      <point x="355" y="628"/>
      <point x="355" y="628"/>
    </contour>
    <contour>
      <point x="352" y="472" type="curve" smooth="yes"/>
      <point x="301" y="494"/>
      <point x="277" y="494"/>
      <point x="269" y="474" type="curve" smooth="yes"/>
      <point x="261" y="453"/>
      <point x="272" y="438"/>
      <point x="325" y="413" type="curve" smooth="yes"/>
      <point x="357" y="397"/>
      <point x="393" y="383"/>
      <point x="410" y="376" type="curve" smooth="yes"/>
      <point x="462" y="356"/>
      <point x="482" y="355"/>
      <point x="491" y="374" type="curve" smooth="yes"/>
      <point x="500" y="394"/>
      <point x="492" y="413"/>
      <point x="440" y="435" type="curve" smooth="yes"/>
      <point x="419" y="444"/>
      <point x="390" y="456"/>
    </contour>
    <contour>
      <point x="60" y="409" type="curve" smooth="yes"/>
      <point x="5" y="388"/>
      <point x="35" y="319"/>
      <point x="88" y="335" type="curve" smooth="yes"/>
      <point x="175" y="362"/>
      <point x="235" y="434"/>
      <point x="235" y="575" type="curve" smooth="yes"/>
      <point x="235" y="654"/>
      <point x="202" y="698"/>
      <point x="126" y="698" type="curve" smooth="yes"/>
      <point x="70" y="698"/>
      <point x="29" y="664"/>
      <point x="29" y="604" type="curve" smooth="yes"/>
      <point x="29" y="501"/>
      <point x="127" y="529"/>
      <point x="127" y="477" type="curve" smooth="yes"/>
      <point x="127" y="449"/>
      <point x="102" y="424"/>
    </contour>
    <contour>
      <point x="130" y="565" type="curve" smooth="yes"/>
      <point x="107" y="565"/>
      <point x="88" y="584"/>
      <point x="88" y="607" type="curve" smooth="yes"/>
      <point x="88" y="630"/>
      <point x="107" y="649"/>
      <point x="130" y="649" type="curve" smooth="yes"/>
      <point x="153" y="649"/>
      <point x="172" y="630"/>
      <point x="172" y="607" type="curve" smooth="yes"/>
      <point x="172" y="584"/>
      <point x="153" y="565"/>
    </contour>
    <contour>
      <point x="170" y="470" type="curve" smooth="yes"/>
      <point x="160" y="476"/>
      <point x="151" y="474"/>
      <point x="139" y="453" type="curve" smooth="yes"/>
      <point x="129" y="435"/>
      <point x="131" y="423"/>
      <point x="136" y="419" type="curve" smooth="yes"/>
      <point x="140" y="416"/>
      <point x="140" y="416"/>
      <point x="146" y="413" type="curve" smooth="yes"/>
      <point x="156" y="408"/>
      <point x="167" y="407"/>
      <point x="178" y="427" type="curve" smooth="yes"/>
      <point x="189" y="448"/>
      <point x="187" y="456"/>
      <point x="179" y="463" type="curve" smooth="yes"/>
      <point x="175" y="466"/>
      <point x="174" y="467"/>
    </contour>
  </outline>
</glyph>
<glyph name="ellipsis" format="2">
  <advance width="760"/>
  <unicode hex="2026"/>
  <outline>
    <contour>
      <point x="638" y="-7" type="curve" smooth="yes"/>
      <point x="686" y="-7"/>
      <point x="714" y="21"/>
      <point x="714" y="79" type="curve" smooth="yes"/>
      <point x="714" y="132"/>
      <point x="689" y="169"/>
      <point x="642" y="169" type="curve" smooth="yes"/>
      <point x="597" y="169"/>
      <point x="563" y="131"/>
      <point x="563" y="76" type="curve" smooth="yes"/>
      <point x="563" y="28"/>
      <point x="593" y="-7"/>
    </contour>
    <contour>
      <point x="642" y="87" type="curve" smooth="yes"/>
      <point x="642" y="87"/>
      <point x="642" y="87"/>
      <point x="642" y="87" type="curve" smooth="yes"/>
      <point x="642" y="87"/>
      <point x="642" y="87"/>
      <point x="642" y="87" type="curve" smooth="yes"/>
      <point x="642" y="87"/>
      <point x="642" y="87"/>
      <point x="642" y="87" type="curve" smooth="yes"/>
      <point x="642" y="87"/>
      <point x="642" y="87"/>
    </contour>
    <contour>
      <point x="399" y="-19" type="curve" smooth="yes"/>
      <point x="463" y="-19"/>
      <point x="500" y="15"/>
      <point x="500" y="84" type="curve" smooth="yes"/>
      <point x="500" y="149"/>
      <point x="467" y="194"/>
      <point x="406" y="194" type="curve" smooth="yes"/>
      <point x="348" y="194"/>
      <point x="304" y="149"/>
      <point x="304" y="84" type="curve" smooth="yes"/>
      <point x="304" y="25"/>
      <point x="342" y="-19"/>
    </contour>
    <contour>
      <point x="413" y="34" type="curve" smooth="yes"/>
      <point x="390" y="34"/>
      <point x="372" y="52"/>
      <point x="372" y="75" type="curve" smooth="yes"/>
      <point x="372" y="97"/>
      <point x="390" y="116"/>
      <point x="413" y="116" type="curve" smooth="yes"/>
      <point x="435" y="116"/>
      <point x="454" y="97"/>
      <point x="454" y="75" type="curve" smooth="yes"/>
      <point x="454" y="52"/>
      <point x="435" y="34"/>
    </contour>
    <component base="period"/>
  </outline>
</glyph>
<glyph name="guilsinglleft" format="2">
  <advance width="331"/>
  <unicode hex="2039"/>
  <outline>
    <contour>
      <point x="224" y="49" type="curve" smooth="yes"/>
      <point x="254" y="11"/>
      <point x="322" y="51"/>
      <point x="294" y="93" type="curve" smooth="yes"/>
      <point x="254" y="151"/>
      <point x="205" y="219"/>
      <point x="169" y="267" type="curve" smooth="yes"/>
      <point x="152" y="290"/>
      <point x="151" y="315"/>
      <point x="161" y="333" type="curve" smooth="yes"/>
      <point x="184" y="374"/>
      <point x="230" y="460"/>
      <point x="257" y="512" type="curve" smooth="yes"/>
      <point x="282" y="560"/>
      <point x="210" y="598"/>
      <point x="176" y="549" type="curve" smooth="yes"/>
      <point x="129" y="481"/>
      <point x="92" y="426"/>
      <point x="60" y="373" type="curve" smooth="yes"/>
      <point x="39" y="338"/>
      <point x="36" y="299"/>
      <point x="65" y="258" type="curve" smooth="yes"/>
      <point x="114" y="189"/>
      <point x="171" y="115"/>
    </contour>
  </outline>
</glyph>
<glyph name="C.001" format="2">
  <advance width="514"/>
  <anchor x="226" y="0" name="cedilla"/>
  <anchor x="307" y="711" name="top"/>
  <outline>
    <contour>
      <point x="293" y="10" type="curve" smooth="yes"/>
      <point x="347" y="10"/>
      <point x="410" y="26"/>
      <point x="456" y="66" type="curve" smooth="yes"/>
      <point x="541" y="140"/>
      <point x="522" y="284"/>
      <point x="428" y="284" type="curve" smooth="yes"/>
      <point x="411" y="284"/>
      <point x="393" y="277"/>
      <point x="383" y="269" type="curve"/>
      <point x="440" y="189"/>
      <point x="446" y="150"/>
      <point x="420" y="141" type="curve" smooth="yes"/>
      <point x="399" y="134"/>
      <point x="381" y="146"/>
      <point x="335" y="243" type="curve"/>
      <point x="321" y="232"/>
      <point x="298" y="215"/>
      <point x="284" y="206" type="curve"/>
      <point x="317" y="145"/>
      <point x="317" y="113"/>
      <point x="299" y="105" type="curve" smooth="yes"/>
      <point x="278" y="96"/>
      <point x="257" y="110"/>
      <point x="237" y="167" type="curve"/>
      <point x="229" y="162"/>
      <point x="218" y="159"/>
      <point x="207" y="159" type="curve" smooth="yes"/>
      <point x="164" y="159"/>
      <point x="132" y="205"/>
      <point x="132" y="325" type="curve" smooth="yes"/>
      <point x="132" y="475"/>
      <point x="194" y="581"/>
      <point x="266" y="610" type="curve" smooth="yes"/>
      <point x="284" y="617"/>
      <point x="294" y="619"/>
      <point x="304" y="620" type="curve" smooth="yes"/>
      <point x="313" y="621"/>
      <point x="322" y="621"/>
      <point x="331" y="621" type="curve" smooth="yes"/>
      <point x="340" y="621"/>
      <point x="348" y="620"/>
      <point x="358" y="619" type="curve" smooth="yes"/>
      <point x="368" y="618"/>
      <point x="375" y="617"/>
      <point x="381" y="616" type="curve" smooth="yes"/>
      <point x="388" y="615"/>
      <point x="401" y="612"/>
      <point x="412" y="609" type="curve" smooth="yes"/>
      <point x="419" y="607"/>
      <point x="430" y="604"/>
      <point x="441" y="604" type="curve" smooth="yes"/>
      <point x="455" y="604"/>
      <point x="472" y="616"/>
      <point x="472" y="639" type="curve" smooth="yes"/>
      <point x="472" y="685"/>
      <point x="411" y="708"/>
      <point x="336" y="708" type="curve" smooth="yes"/>
      <point x="162" y="708"/>
      <point x="41" y="566"/>
      <point x="41" y="310" type="curve" smooth="yes"/>
      <point x="41" y="141"/>
      <point x="108" y="10"/>
    </contour>
    <contour>
      <point x="236" y="761" type="line" smooth="yes"/>
      <point x="213" y="814"/>
      <point x="132" y="777"/>
      <point x="164" y="724" type="curve" smooth="yes"/>
      <point x="218" y="635" type="line" smooth="yes"/>
      <point x="239" y="600"/>
      <point x="293" y="630"/>
      <point x="277" y="666" type="curve" smooth="yes"/>
    </contour>
    <contour>
      <point x="56" y="574" type="line" smooth="yes"/>
      <point x="1" y="595"/>
      <point x="-29" y="514"/>
      <point x="30" y="496" type="curve" smooth="yes"/>
      <point x="218" y="438" type="line" smooth="yes"/>
      <point x="264" y="424"/>
      <point x="289" y="485"/>
      <point x="242" y="503" type="curve" smooth="yes"/>
    </contour>
    <contour>
      <point x="359" y="363" type="curve" smooth="yes"/>
      <point x="391" y="363"/>
      <point x="418" y="390"/>
      <point x="418" y="424" type="curve" smooth="yes"/>
      <point x="418" y="456"/>
      <point x="391" y="483"/>
      <point x="359" y="483" type="curve" smooth="yes"/>
      <point x="325" y="483"/>
      <point x="298" y="456"/>
      <point x="298" y="424" type="curve" smooth="yes"/>
      <point x="298" y="390"/>
      <point x="325" y="363"/>
    </contour>
    <contour>
      <point x="411" y="68" type="line" smooth="yes"/>
      <point x="398" y="90"/>
      <point x="358" y="68"/>
      <point x="368" y="52" type="curve" smooth="yes"/>
      <point x="373" y="44" type="line" smooth="yes"/>
      <point x="382" y="30"/>
      <point x="424" y="46"/>
      <point x="414" y="63" type="curve" smooth="yes"/>
    </contour>
    <contour>
      <point x="330" y="61" type="line" smooth="yes"/>
      <point x="325" y="99"/>
      <point x="254" y="93"/>
      <point x="256" y="58" type="curve" smooth="yes"/>
      <point x="257" y="45" type="line" smooth="yes"/>
      <point x="260" y="5"/>
      <point x="335" y="20"/>
      <point x="331" y="50" type="curve" smooth="yes"/>
    </contour>
  </outline>
</glyph>
<glyph name="U.top90" format="2">
  <advance width="645"/>
  <outline>
    <contour>
      <point x="333" y="-2" type="curve" smooth="yes"/>
      <point x="525" y="-2"/>
      <point x="609" y="89"/>
      <point x="592" y="267" type="curve" smooth="yes"/>
      <point x="580" y="392"/>
      <point x="564" y="523"/>
      <point x="545" y="640" type="curve" smooth="yes"/>
      <point x="541" y="666"/>
      <point x="526" y="679"/>
      <point x="503" y="679" type="curve" smooth="yes"/>
      <point x="479" y="679"/>
      <point x="465" y="659"/>
      <point x="460" y="635" type="curve" smooth="yes"/>
      <point x="441" y="536"/>
      <point x="410" y="305"/>
      <point x="386" y="185" type="curve" smooth="yes"/>
      <point x="373" y="122"/>
      <point x="341" y="94"/>
      <point x="288" y="94" type="curve" smooth="yes"/>
      <point x="210" y="94"/>
      <point x="184" y="146"/>
      <point x="186" y="224" type="curve" smooth="yes"/>
      <point x="195" y="684" type="line" smooth="yes"/>
      <point x="196" y="737"/>
      <point x="111" y="741"/>
      <point x="108" y="685" type="curve" smooth="yes"/>
      <point x="85" y="248" type="line" smooth="yes"/>
      <point x="76" y="85"/>
      <point x="160" y="-2"/>
    </contour>
    <contour>
      <point x="290" y="279" type="curve" smooth="yes"/>
      <point x="319" y="279"/>
      <point x="342" y="302"/>
      <point x="342" y="331" type="curve" smooth="yes"/>
      <point x="342" y="360"/>
      <point x="319" y="383"/>
      <point x="290" y="383" type="curve" smooth="yes"/>
      <point x="261" y="383"/>
      <point x="238" y="360"/>
      <point x="238" y="331" type="curve" smooth="yes"/>
      <point x="238" y="302"/>
      <point x="261" y="279"/>
    </contour>
    <contour>
      <point x="282" y="570" type="curve" smooth="yes"/>
      <point x="46" y="562" type="line" smooth="yes"/>
      <point x="-2" y="560"/>
      <point x="-2" y="491"/>
      <point x="52" y="494" type="curve" smooth="yes"/>
      <point x="283" y="506" type="line" smooth="yes"/>
      <point x="330" y="508"/>
      <point x="326" y="571"/>
    </contour>
    <contour>
      <point x="123" y="445" type="curve" smooth="yes"/>
      <point x="27" y="429" type="line" smooth="yes"/>
      <point x="-16" y="422"/>
      <point x="-5" y="359"/>
      <point x="40" y="366" type="curve" smooth="yes"/>
      <point x="136" y="380" type="line" smooth="yes"/>
      <point x="174" y="386"/>
      <point x="159" y="451"/>
    </contour>
    <contour>
      <point x="517" y="523" type="curve" smooth="yes"/>
      <point x="489" y="522" type="line" smooth="yes"/>
      <point x="453" y="521"/>
      <point x="462" y="456"/>
      <point x="497" y="458" type="curve" smooth="yes"/>
      <point x="516" y="459" type="line" smooth="yes"/>
      <point x="553" y="461"/>
      <point x="548" y="524"/>
    </contour>
    <contour>
      <point x="504" y="192" type="curve" smooth="yes"/>
      <point x="478" y="192"/>
      <point x="457" y="213"/>
      <point x="457" y="239" type="curve" smooth="yes"/>
      <point x="457" y="265"/>
      <point x="478" y="285"/>
      <point x="504" y="285" type="curve" smooth="yes"/>
      <point x="530" y="285"/>
      <point x="550" y="265"/>
      <point x="550" y="239" type="curve" smooth="yes"/>
      <point x="550" y="213"/>
      <point x="530" y="192"/>
    </contour>
    <contour>
      <point x="505" y="339" type="curve" smooth="yes"/>
      <point x="484" y="339"/>
      <point x="467" y="356"/>
      <point x="467" y="377" type="curve" smooth="yes"/>
      <point x="467" y="398"/>
      <point x="484" y="414"/>
      <point x="505" y="414" type="curve" smooth="yes"/>
      <point x="525" y="414"/>
      <point x="541" y="398"/>
      <point x="541" y="377" type="curve" smooth="yes"/>
      <point x="541" y="356"/>
      <point x="525" y="339"/>
    </contour>
    <contour>
      <point x="458" y="78" type="curve" smooth="yes"/>
      <point x="438" y="78"/>
      <point x="422" y="94"/>
      <point x="422" y="114" type="curve" smooth="yes"/>
      <point x="422" y="134"/>
      <point x="438" y="149"/>
      <point x="458" y="149" type="curve" smooth="yes"/>
      <point x="478" y="149"/>
      <point x="493" y="134"/>
      <point x="493" y="114" type="curve" smooth="yes"/>
      <point x="493" y="94"/>
      <point x="478" y="78"/>
    </contour>
  </outline>
</glyph>
<glyph name="brevecomb.case" format="2">
  <anchor x="193" y="700" name="_top"/>
  <outline>
    <contour>
      <point x="180" y="751" type="curve" smooth="yes"/>
      <point x="256" y="751"/>
      <point x="321" y="780"/>
      <point x="345" y="852" type="curve" smooth="yes"/>
      <point x="360" y="895"/>
      <point x="347" y="916"/>
      <point x="326" y="922" type="curve" smooth="yes"/>
      <point x="302" y="928"/>
      <point x="279" y="916"/>
      <point x="267" y="885" type="curve" smooth="yes"/>
      <point x="252" y="848"/>
      <point x="223" y="830"/>
      <point x="181" y="830" type="curve" smooth="yes"/>
      <point x="148" y="830"/>
      <point x="134" y="858"/>
      <point x="127" y="888" type="curve" smooth="yes"/>
      <point x="119" y="929"/>
      <point x="105" y="959"/>
      <point x="63" y="950" type="curve" smooth="yes"/>
      <point x="22" y="941"/>
      <point x="19" y="906"/>
      <point x="29" y="861" type="curve" smooth="yes"/>
      <point x="45" y="795"/>
      <point x="94" y="751"/>
    </contour>
  </outline>
</glyph>
<glyph name="circumflexcomb.case" format="2">
  <anchor x="214" y="700" name="_top"/>
  <outline>
    <contour>
      <point x="112" y="751" type="curve" smooth="yes"/>
      <point x="141" y="773"/>
      <point x="179" y="809"/>
      <point x="209" y="833" type="curve" smooth="yes"/>
      <point x="221" y="842"/>
      <point x="230" y="841"/>
      <point x="241" y="832" type="curve" smooth="yes"/>
      <point x="257" y="818"/>
      <point x="283" y="792"/>
      <point x="306" y="772" type="curve" smooth="yes"/>
      <point x="324" y="757"/>
      <point x="345" y="752"/>
      <point x="361" y="764" type="curve" smooth="yes"/>
      <point x="376" y="775"/>
      <point x="376" y="799"/>
      <point x="359" y="825" type="curve" smooth="yes"/>
      <point x="340" y="854"/>
      <point x="309" y="893"/>
      <point x="282" y="927" type="curve" smooth="yes"/>
      <point x="266" y="948"/>
      <point x="235" y="952"/>
      <point x="207" y="933" type="curve" smooth="yes"/>
      <point x="155" y="897"/>
      <point x="85" y="845"/>
      <point x="53" y="819" type="curve" smooth="yes"/>
      <point x="25" y="797"/>
      <point x="20" y="768"/>
      <point x="38" y="746" type="curve" smooth="yes"/>
      <point x="57" y="724"/>
      <point x="82" y="727"/>
    </contour>
  </outline>
</glyph>
<glyph name="hungarumlautcomb.case" format="2">
  <anchor x="190" y="700" name="_top"/>
  <outline>
    <contour>
      <point x="170" y="779" type="curve" smooth="yes"/>
      <point x="189" y="811"/>
      <point x="210" y="850"/>
      <point x="231" y="889" type="curve" smooth="yes"/>
      <point x="246" y="916"/>
      <point x="250" y="953"/>
      <point x="207" y="971" type="curve" smooth="yes"/>
      <point x="171" y="986"/>
      <point x="144" y="965"/>
      <point x="133" y="933" type="curve" smooth="yes"/>
      <point x="119" y="891"/>
      <point x="106" y="848"/>
      <point x="97" y="815" type="curve" smooth="yes"/>
      <point x="90" y="791"/>
      <point x="84" y="759"/>
      <point x="111" y="746" type="curve" smooth="yes"/>
      <point x="133" y="735"/>
      <point x="156" y="755"/>
    </contour>
    <contour>
      <point x="349" y="790" type="curve" smooth="yes"/>
      <point x="365" y="816"/>
      <point x="386" y="850"/>
      <point x="401" y="875" type="curve" smooth="yes"/>
      <point x="416" y="901"/>
      <point x="421" y="932"/>
      <point x="400" y="946" type="curve" smooth="yes"/>
      <point x="377" y="961"/>
      <point x="353" y="951"/>
      <point x="331" y="928" type="curve" smooth="yes"/>
      <point x="312" y="908"/>
      <point x="290" y="881"/>
      <point x="273" y="860" type="curve" smooth="yes"/>
      <point x="243" y="822"/>
      <point x="237" y="780"/>
      <point x="268" y="761" type="curve" smooth="yes"/>
      <point x="298" y="740"/>
      <point x="330" y="760"/>
    </contour>
  </outline>
</glyph>
<glyph name="ogonekcomb.case" format="2">
  <anchor x="194" y="0" name="_ogonek"/>
  <outline>
    <contour>
      <point x="249" y="28" type="curve"/>
      <point x="148" y="28" type="line"/>
      <point x="94" y="4"/>
      <point x="42" y="-53"/>
      <point x="42" y="-134" type="curve" smooth="yes"/>
      <point x="42" y="-203"/>
      <point x="86" y="-249"/>
      <point x="155" y="-249" type="curve" smooth="yes"/>
      <point x="211" y="-249"/>
      <point x="254" y="-223"/>
      <point x="254" y="-181" type="curve" smooth="yes"/>
      <point x="254" y="-156"/>
      <point x="239" y="-142"/>
      <point x="215" y="-142" type="curve" smooth="yes"/>
      <point x="190" y="-142"/>
      <point x="170" y="-159"/>
      <point x="147" y="-159" type="curve" smooth="yes"/>
      <point x="121" y="-159"/>
      <point x="112" y="-139"/>
      <point x="112" y="-115" type="curve" smooth="yes"/>
      <point x="112" y="-58"/>
      <point x="166" y="-14"/>
    </contour>
  </outline>
</glyph>
<glyph name="ringcomb.case" format="2">
  <anchor x="150" y="700" name="_top"/>
  <outline>
    <contour>
      <point x="141" y="732" type="curve" smooth="yes"/>
      <point x="207" y="732"/>
      <point x="262" y="764"/>
      <point x="262" y="839" type="curve" smooth="yes"/>
      <point x="262" y="914"/>
      <point x="212" y="963"/>
      <point x="143" y="963" type="curve" smooth="yes"/>
      <point x="74" y="963"/>
      <point x="26" y="911"/>
      <point x="26" y="840" type="curve" smooth="yes"/>
      <point x="26" y="771"/>
      <point x="71" y="732"/>
    </contour>
    <contour>
      <point x="142" y="782" type="curve" smooth="yes"/>
      <point x="108" y="782"/>
      <point x="94" y="805"/>
      <point x="94" y="840" type="curve" smooth="yes"/>
      <point x="94" y="876"/>
      <point x="116" y="896"/>
      <point x="147" y="896" type="curve" smooth="yes"/>
      <point x="177" y="896"/>
      <point x="194" y="871"/>
      <point x="194" y="837" type="curve" smooth="yes"/>
      <point x="194" y="802"/>
      <point x="172" y="782"/>
    </contour>
  </outline>
</glyph>
<glyph name="two.dot" format="2">
  <advance width="512"/>
  <outline>
    <contour>
      <point x="380" y="513" type="curve" smooth="yes"/>
      <point x="380" y="460"/>
      <point x="359" y="423"/>
      <point x="326" y="389" type="curve" smooth="yes"/>
      <point x="262" y="324"/>
      <point x="135" y="310"/>
      <point x="67" y="242" type="curve" smooth="yes"/>
      <point x="40" y="215"/>
      <point x="25" y="179"/>
      <point x="25" y="130" type="curve" smooth="yes"/>
      <point x="25" y="45"/>
      <point x="79" y="3"/>
      <point x="180" y="0" type="curve" smooth="yes"/>
      <point x="439" y="-7" type="line" smooth="yes"/>
      <point x="496" y="-9"/>
      <point x="516" y="63"/>
      <point x="460" y="93" type="curve" smooth="yes"/>
      <point x="242" y="209" type="line" smooth="yes"/>
      <point x="222" y="220"/>
      <point x="218" y="235"/>
      <point x="233" y="250" type="curve" smooth="yes"/>
      <point x="259" y="276"/>
      <point x="339" y="295"/>
      <point x="398" y="355" type="curve" smooth="yes"/>
      <point x="435" y="392"/>
      <point x="463" y="444"/>
      <point x="463" y="522" type="curve" smooth="yes"/>
      <point x="463" y="618"/>
      <point x="400" y="722"/>
      <point x="262" y="722" type="curve" smooth="yes"/>
      <point x="140" y="722"/>
      <point x="59" y="643"/>
      <point x="59" y="536" type="curve" smooth="yes"/>
      <point x="59" y="455"/>
      <point x="105" y="405"/>
      <point x="184" y="405" type="curve" smooth="yes"/>
      <point x="254" y="405"/>
      <point x="307" y="451"/>
      <point x="307" y="517" type="curve" smooth="yes"/>
      <point x="307" y="575"/>
      <point x="270" y="603"/>
      <point x="227" y="603" type="curve" smooth="yes"/>
      <point x="202" y="603"/>
      <point x="188" y="591"/>
      <point x="188" y="569" type="curve" smooth="yes"/>
      <point x="188" y="530"/>
      <point x="232" y="551"/>
      <point x="232" y="505" type="curve" smooth="yes"/>
      <point x="232" y="485"/>
      <point x="215" y="475"/>
      <point x="190" y="475" type="curve" smooth="yes"/>
      <point x="155" y="475"/>
      <point x="134" y="497"/>
      <point x="134" y="542" type="curve" smooth="yes"/>
      <point x="134" y="607"/>
      <point x="185" y="652"/>
      <point x="256" y="652" type="curve" smooth="yes"/>
      <point x="351" y="652"/>
      <point x="380" y="576"/>
    </contour>
    <contour>
      <point x="297" y="180" type="line"/>
      <point x="238" y="89"/>
      <point x="220" y="81"/>
      <point x="200" y="93" type="curve" smooth="yes"/>
      <point x="181" y="104"/>
      <point x="184" y="134"/>
      <point x="244" y="208" type="curve"/>
    </contour>
    <contour>
      <point x="389" y="131" type="line"/>
      <point x="355" y="57"/>
      <point x="335" y="35"/>
      <point x="310" y="49" type="curve" smooth="yes"/>
      <point x="285" y="63"/>
      <point x="298" y="93"/>
      <point x="341" y="156" type="curve"/>
    </contour>
    <contour>
      <point x="299" y="793" type="line" smooth="yes"/>
      <point x="304" y="854"/>
      <point x="210" y="852"/>
      <point x="219" y="792" type="curve" smooth="yes"/>
      <point x="231" y="714" type="line"/>
      <point x="292" y="713" type="line"/>
    </contour>
    <contour>
      <point x="143" y="744" type="line" smooth="yes"/>
      <point x="118" y="797"/>
      <point x="47" y="746"/>
      <point x="84" y="698" type="curve" smooth="yes"/>
      <point x="111" y="663" type="line"/>
      <point x="165" y="697" type="line"/>
    </contour>
    <contour>
      <point x="143" y="603" type="line" smooth="yes"/>
      <point x="106" y="621"/>
      <point x="78" y="568"/>
      <point x="113" y="550" type="curve" smooth="yes"/>
      <point x="121" y="546" type="line"/>
      <point x="147" y="601" type="line"/>
    </contour>
    <contour>
      <point x="185" y="47" type="curve" smooth="yes"/>
      <point x="185" y="53" type="line" smooth="yes"/>
      <point x="185" y="53"/>
      <point x="136" y="56"/>
      <point x="136" y="56" type="curve" smooth="yes"/>
      <point x="136" y="48" type="line" smooth="yes"/>
      <point x="136" y="13"/>
      <point x="185" y="10"/>
    </contour>
    <contour>
      <point x="114" y="81" type="curve" smooth="yes"/>
      <point x="114" y="86" type="line" smooth="yes"/>
      <point x="114" y="86"/>
      <point x="67" y="89"/>
      <point x="67" y="89" type="curve" smooth="yes"/>
      <point x="67" y="84" type="line" smooth="yes"/>
      <point x="67" y="39"/>
      <point x="114" y="37"/>
    </contour>
    <contour>
      <point x="461" y="40" type="line" smooth="yes"/>
      <point x="461" y="85"/>
      <point x="395" y="84"/>
      <point x="395" y="39" type="curve" smooth="yes"/>
      <point x="395" y="35" type="line" smooth="yes"/>
      <point x="395" y="-2"/>
      <point x="461" y="-9"/>
      <point x="461" y="36" type="curve" smooth="yes"/>
    </contour>
    <contour>
      <point x="206" y="682" type="curve" smooth="yes"/>
      <point x="206" y="682"/>
      <point x="206" y="682"/>
      <point x="206" y="682" type="curve" smooth="yes"/>
      <point x="206" y="682"/>
      <point x="206" y="682"/>
      <point x="206" y="682" type="curve" smooth="yes"/>
      <point x="206" y="682"/>
      <point x="206" y="682"/>
      <point x="206" y="682" type="curve" smooth="yes"/>
      <point x="206" y="682"/>
      <point x="206" y="682"/>
    </contour>
    <contour>
      <point x="313" y="677" type="curve" smooth="yes"/>
      <point x="313" y="677"/>
      <point x="313" y="677"/>
      <point x="313" y="677" type="curve" smooth="yes"/>
      <point x="313" y="677"/>
      <point x="313" y="677"/>
      <point x="313" y="677" type="curve" smooth="yes"/>
      <point x="313" y="677"/>
      <point x="313" y="677"/>
      <point x="313" y="677" type="curve" smooth="yes"/>
      <point x="313" y="677"/>
      <point x="313" y="677"/>
    </contour>
    <contour>
      <point x="410" y="597" type="curve" smooth="yes"/>
      <point x="410" y="597"/>
      <point x="410" y="597"/>
      <point x="410" y="597" type="curve" smooth="yes"/>
      <point x="410" y="597"/>
      <point x="410" y="597"/>
      <point x="410" y="597" type="curve" smooth="yes"/>
      <point x="410" y="597"/>
      <point x="410" y="597"/>
      <point x="410" y="597" type="curve" smooth="yes"/>
      <point x="410" y="597"/>
      <point x="410" y="597"/>
    </contour>
    <contour>
      <point x="406" y="296" type="curve" smooth="yes"/>
      <point x="376" y="296"/>
      <point x="350" y="270"/>
      <point x="350" y="240" type="curve" smooth="yes"/>
      <point x="350" y="210"/>
      <point x="376" y="185"/>
      <point x="406" y="185" type="curve" smooth="yes"/>
      <point x="436" y="185"/>
      <point x="461" y="210"/>
      <point x="461" y="240" type="curve" smooth="yes"/>
      <point x="461" y="270"/>
      <point x="436" y="296"/>
    </contour>
  </outline>
</glyph>
